<?xml version="1.0" encoding="UTF-8" standalone="no"?><!-- Generator: Gravit.io -->
<svg xmlns="http://www.w3.org/2000/svg"
     style="isolation:isolate" viewBox="788.25 430.813 1277.116 309.91" width="1277.116pt" height="309.91pt" style="background:white">
    <defs>
        <clipPath id="_clipPath_cpKuSdzQGk5rttSkRUtHBUavjPtpavNb">
            <rect x="788.25" y="430.813" width="1277.116" height="309.91"/>
        </clipPath>
    </defs>
    <g clip-path="url(#_clipPath_cpKuSdzQGk5rttSkRUtHBUavjPtpavNb)">
        <path d=" M 793.25 602.713 L 852.527 602.243 L 861.688 576.878 L 874.082 679.75 L 915.037 505.008 L 931.742 623.382 L 944.137 599.895 L 1027.124 598.955 L 1041.135 574.999 L 1061.613 676.932 L 1102.568 501.25 L 1126.818 624.321 L 1142.984 599.425 L 1186.753 599.236 L 1207.25 591.25 L 1233.75 607.25 L 1254.25 599.25 L 2060.366 598.75"
              fill="none"  stroke-width="10" stroke="rgb(0,0,0)"
              stroke-linejoin="round" stroke-linecap="square" stroke-miterlimit="3"/>
        <mask id="_mask_MaeJtzCEWUDS0ceZMHN2YvbEacABueXe" x="-200%" y="-200%" width="400%" height="400%">
            <rect x="-200%" y="-200%" width="400%" height="400%" style="fill:white;"/>
            <path d=" M 1041.507 467.878 L 1029.148 467.878 L 1032.851 448.813 L 1058.108 448.813 L 1058.108 511.379 L 1058.108 511.379 Q 1058.108 535.793 1043.362 549.758 L 1043.362 549.758 L 1043.362 549.758 Q 1028.616 563.723 1002.835 563.723 L 1002.835 563.723 L 1002.835 563.723 Q 977.053 563.723 962.942 549.66 L 962.942 549.66 L 962.942 549.66 Q 948.831 535.598 948.831 510.988 L 948.831 510.988 L 948.831 448.813 L 976.072 448.813 L 978.541 466.114 L 965.432 466.114 L 965.432 512.16 L 965.432 512.16 Q 965.432 530.031 975.198 539.602 L 975.198 539.602 L 975.198 539.602 Q 984.964 549.172 1003.909 549.172 L 1003.909 549.172 L 1003.909 549.172 Q 1021.975 549.172 1031.741 539.553 L 1031.741 539.553 L 1031.741 539.553 Q 1041.507 529.934 1041.507 511.965 L 1041.507 511.965 L 1041.507 467.878 Z "
                  fill="black" stroke="none"/>
        </mask>
        <path d=" M 1041.507 467.878 L 1029.148 467.878 L 1032.851 448.813 L 1058.108 448.813 L 1058.108 511.379 L 1058.108 511.379 Q 1058.108 535.793 1043.362 549.758 L 1043.362 549.758 L 1043.362 549.758 Q 1028.616 563.723 1002.835 563.723 L 1002.835 563.723 L 1002.835 563.723 Q 977.053 563.723 962.942 549.66 L 962.942 549.66 L 962.942 549.66 Q 948.831 535.598 948.831 510.988 L 948.831 510.988 L 948.831 448.813 L 976.072 448.813 L 978.541 466.114 L 965.432 466.114 L 965.432 512.16 L 965.432 512.16 Q 965.432 530.031 975.198 539.602 L 975.198 539.602 L 975.198 539.602 Q 984.964 549.172 1003.909 549.172 L 1003.909 549.172 L 1003.909 549.172 Q 1021.975 549.172 1031.741 539.553 L 1031.741 539.553 L 1031.741 539.553 Q 1041.507 529.934 1041.507 511.965 L 1041.507 511.965 L 1041.507 467.878 Z "
              fill="rgb(153,21,21)" mask="url(#_mask_MaeJtzCEWUDS0ceZMHN2YvbEacABueXe)"
               stroke-width="12" stroke="rgb(255,255,255)" stroke-linejoin="miter"
              stroke-linecap="square" stroke-miterlimit="3"/>
        <path d=" M 1041.507 467.878 L 1029.148 467.878 L 1032.851 448.813 L 1058.108 448.813 L 1058.108 511.379 L 1058.108 511.379 Q 1058.108 535.793 1043.362 549.758 L 1043.362 549.758 L 1043.362 549.758 Q 1028.616 563.723 1002.835 563.723 L 1002.835 563.723 L 1002.835 563.723 Q 977.053 563.723 962.942 549.66 L 962.942 549.66 L 962.942 549.66 Q 948.831 535.598 948.831 510.988 L 948.831 510.988 L 948.831 448.813 L 976.072 448.813 L 978.541 466.114 L 965.432 466.114 L 965.432 512.16 L 965.432 512.16 Q 965.432 530.031 975.198 539.602 L 975.198 539.602 L 975.198 539.602 Q 984.964 549.172 1003.909 549.172 L 1003.909 549.172 L 1003.909 549.172 Q 1021.975 549.172 1031.741 539.553 L 1031.741 539.553 L 1031.741 539.553 Q 1041.507 529.934 1041.507 511.965 L 1041.507 511.965 L 1041.507 467.878 Z "
              fill="rgb(153,21,21)"/>
        <mask id="_mask_vUxjgkgFyFgiEbq5lCFwrOGNxWkru5sJ" x="-200%" y="-200%" width="400%" height="400%">
            <rect x="-200%" y="-200%" width="400%" height="400%" style="fill:white;"/>
            <path d=" M 1087.445 618.938 L 1104.047 618.563 L 1104.047 670.379 L 1104.047 670.379 Q 1104.047 694.793 1089.301 708.758 L 1089.301 708.758 L 1089.301 708.758 Q 1074.555 722.723 1048.773 722.723 L 1048.773 722.723 L 1048.773 722.723 Q 1022.992 722.723 1008.881 708.66 L 1008.881 708.66 L 1008.881 708.66 Q 994.77 694.598 994.77 669.988 L 994.77 669.988 L 994.77 577.996 L 1011.371 577.996 L 1011.371 671.16 L 1011.371 671.16 Q 1011.371 689.031 1021.137 698.602 L 1021.137 698.602 L 1021.137 698.602 Q 1030.902 708.172 1049.848 708.172 L 1049.848 708.172 L 1049.848 708.172 Q 1067.914 708.172 1077.68 698.553 L 1077.68 698.553 L 1077.68 698.553 Q 1087.445 688.934 1087.445 670.965 L 1087.445 670.965 L 1087.445 618.938 Z "
                  fill="black" stroke="none"/>
        </mask>
        <path d=" M 1087.445 618.938 L 1104.047 618.563 L 1104.047 670.379 L 1104.047 670.379 Q 1104.047 694.793 1089.301 708.758 L 1089.301 708.758 L 1089.301 708.758 Q 1074.555 722.723 1048.773 722.723 L 1048.773 722.723 L 1048.773 722.723 Q 1022.992 722.723 1008.881 708.66 L 1008.881 708.66 L 1008.881 708.66 Q 994.77 694.598 994.77 669.988 L 994.77 669.988 L 994.77 577.996 L 1011.371 577.996 L 1011.371 671.16 L 1011.371 671.16 Q 1011.371 689.031 1021.137 698.602 L 1021.137 698.602 L 1021.137 698.602 Q 1030.902 708.172 1049.848 708.172 L 1049.848 708.172 L 1049.848 708.172 Q 1067.914 708.172 1077.68 698.553 L 1077.68 698.553 L 1077.68 698.553 Q 1087.445 688.934 1087.445 670.965 L 1087.445 670.965 L 1087.445 618.938 Z "
              fill="rgb(153,21,21)" mask="url(#_mask_vUxjgkgFyFgiEbq5lCFwrOGNxWkru5sJ)"
               stroke-width="12" stroke="rgb(255,255,255)" stroke-linejoin="miter"
              stroke-linecap="square" stroke-miterlimit="3"/>
        <path d=" M 1087.445 618.938 L 1104.047 618.563 L 1104.047 670.379 L 1104.047 670.379 Q 1104.047 694.793 1089.301 708.758 L 1089.301 708.758 L 1089.301 708.758 Q 1074.555 722.723 1048.773 722.723 L 1048.773 722.723 L 1048.773 722.723 Q 1022.992 722.723 1008.881 708.66 L 1008.881 708.66 L 1008.881 708.66 Q 994.77 694.598 994.77 669.988 L 994.77 669.988 L 994.77 577.996 L 1011.371 577.996 L 1011.371 671.16 L 1011.371 671.16 Q 1011.371 689.031 1021.137 698.602 L 1021.137 698.602 L 1021.137 698.602 Q 1030.902 708.172 1049.848 708.172 L 1049.848 708.172 L 1049.848 708.172 Q 1067.914 708.172 1077.68 698.553 L 1077.68 698.553 L 1077.68 698.553 Q 1087.445 688.934 1087.445 670.965 L 1087.445 670.965 L 1087.445 618.938 Z "
              fill="rgb(153,21,21)"/>
        <mask id="_mask_vwU1efZIUEGPNaGWaOYo4Tkepm586D6Z" x="-200%" y="-200%" width="400%" height="400%">
            <rect x="-200%" y="-200%" width="400%" height="400%" style="fill:white;"/>
            <path d=" M 1064.988 579.289 L 1064.988 579.289 L 1064.988 579.289 Q 1064.988 566.594 1073.826 557.707 L 1073.826 557.707 L 1073.826 557.707 Q 1082.664 548.82 1095.359 548.82 L 1095.359 548.82 L 1095.359 548.82 Q 1108.055 548.82 1116.941 557.658 L 1116.941 557.658 L 1116.941 557.658 Q 1125.828 566.496 1125.828 579.289 L 1125.828 579.289 L 1125.828 579.289 Q 1125.828 587.492 1121.824 594.475 L 1121.824 594.475 L 1121.824 594.475 Q 1117.82 601.457 1110.691 605.559 L 1110.691 605.559 L 1110.691 605.559 Q 1103.563 609.66 1095.359 609.66 L 1095.359 609.66 L 1095.359 609.66 Q 1082.664 609.66 1073.826 600.871 L 1073.826 600.871 L 1073.826 600.871 Q 1064.988 592.082 1064.988 579.289 Z  M 1076.219 579.289 L 1076.219 579.289 L 1076.219 579.289 Q 1076.219 587.297 1081.932 592.863 L 1081.932 592.863 L 1081.932 592.863 Q 1087.645 598.43 1095.555 598.43 L 1095.555 598.43 L 1095.555 598.43 Q 1103.367 598.43 1108.982 592.912 L 1108.982 592.912 L 1108.982 592.912 Q 1114.598 587.395 1114.598 579.289 L 1114.598 579.289 L 1114.598 579.289 Q 1114.598 571.086 1109.08 565.568 L 1109.08 565.568 L 1109.08 565.568 Q 1103.563 560.051 1095.555 560.051 L 1095.555 560.051 L 1095.555 560.051 Q 1087.449 560.051 1081.834 565.617 L 1081.834 565.617 L 1081.834 565.617 Q 1076.219 571.184 1076.219 579.289 Z "
                  fill-rule="evenodd" fill="black" stroke="none"/>
        </mask>
        <path d=" M 1064.988 579.289 L 1064.988 579.289 L 1064.988 579.289 Q 1064.988 566.594 1073.826 557.707 L 1073.826 557.707 L 1073.826 557.707 Q 1082.664 548.82 1095.359 548.82 L 1095.359 548.82 L 1095.359 548.82 Q 1108.055 548.82 1116.941 557.658 L 1116.941 557.658 L 1116.941 557.658 Q 1125.828 566.496 1125.828 579.289 L 1125.828 579.289 L 1125.828 579.289 Q 1125.828 587.492 1121.824 594.475 L 1121.824 594.475 L 1121.824 594.475 Q 1117.82 601.457 1110.691 605.559 L 1110.691 605.559 L 1110.691 605.559 Q 1103.563 609.66 1095.359 609.66 L 1095.359 609.66 L 1095.359 609.66 Q 1082.664 609.66 1073.826 600.871 L 1073.826 600.871 L 1073.826 600.871 Q 1064.988 592.082 1064.988 579.289 Z  M 1076.219 579.289 L 1076.219 579.289 L 1076.219 579.289 Q 1076.219 587.297 1081.932 592.863 L 1081.932 592.863 L 1081.932 592.863 Q 1087.645 598.43 1095.555 598.43 L 1095.555 598.43 L 1095.555 598.43 Q 1103.367 598.43 1108.982 592.912 L 1108.982 592.912 L 1108.982 592.912 Q 1114.598 587.395 1114.598 579.289 L 1114.598 579.289 L 1114.598 579.289 Q 1114.598 571.086 1109.08 565.568 L 1109.08 565.568 L 1109.08 565.568 Q 1103.563 560.051 1095.555 560.051 L 1095.555 560.051 L 1095.555 560.051 Q 1087.449 560.051 1081.834 565.617 L 1081.834 565.617 L 1081.834 565.617 Q 1076.219 571.184 1076.219 579.289 Z "
              fill-rule="evenodd" fill="rgb(153,21,21)" mask="url(#_mask_vwU1efZIUEGPNaGWaOYo4Tkepm586D6Z)"
               stroke-width="12" stroke="rgb(255,255,255)" stroke-linejoin="miter"
              stroke-linecap="square" stroke-miterlimit="3"/>
        <path d=" M 1064.988 579.289 L 1064.988 579.289 L 1064.988 579.289 Q 1064.988 566.594 1073.826 557.707 L 1073.826 557.707 L 1073.826 557.707 Q 1082.664 548.82 1095.359 548.82 L 1095.359 548.82 L 1095.359 548.82 Q 1108.055 548.82 1116.941 557.658 L 1116.941 557.658 L 1116.941 557.658 Q 1125.828 566.496 1125.828 579.289 L 1125.828 579.289 L 1125.828 579.289 Q 1125.828 587.492 1121.824 594.475 L 1121.824 594.475 L 1121.824 594.475 Q 1117.82 601.457 1110.691 605.559 L 1110.691 605.559 L 1110.691 605.559 Q 1103.563 609.66 1095.359 609.66 L 1095.359 609.66 L 1095.359 609.66 Q 1082.664 609.66 1073.826 600.871 L 1073.826 600.871 L 1073.826 600.871 Q 1064.988 592.082 1064.988 579.289 Z  M 1076.219 579.289 L 1076.219 579.289 L 1076.219 579.289 Q 1076.219 587.297 1081.932 592.863 L 1081.932 592.863 L 1081.932 592.863 Q 1087.645 598.43 1095.555 598.43 L 1095.555 598.43 L 1095.555 598.43 Q 1103.367 598.43 1108.982 592.912 L 1108.982 592.912 L 1108.982 592.912 Q 1114.598 587.395 1114.598 579.289 L 1114.598 579.289 L 1114.598 579.289 Q 1114.598 571.086 1109.08 565.568 L 1109.08 565.568 L 1109.08 565.568 Q 1103.563 560.051 1095.555 560.051 L 1095.555 560.051 L 1095.555 560.051 Q 1087.449 560.051 1081.834 565.617 L 1081.834 565.617 L 1081.834 565.617 Q 1076.219 571.184 1076.219 579.289 Z "
              fill-rule="evenodd" fill="rgb(153,21,21)"/>
        <mask id="_mask_Wpb1H5GmrmNUdQZZej94KIxtxqBfBSol" x="-200%" y="-200%" width="400%" height="400%">
            <rect x="-200%" y="-200%" width="400%" height="400%" style="fill:white;"/>
            <path d=" M 1087.036 579.478 C 1087.036 574.71 1090.907 570.84 1095.674 570.84 C 1100.442 570.84 1104.313 574.71 1104.313 579.478 C 1104.313 584.246 1100.442 588.116 1095.674 588.116 C 1090.907 588.116 1087.036 584.246 1087.036 579.478 Z "
                  fill="black" stroke="none"/>
        </mask>
        <path d=" M 1087.036 579.478 C 1087.036 574.71 1090.907 570.84 1095.674 570.84 C 1100.442 570.84 1104.313 574.71 1104.313 579.478 C 1104.313 584.246 1100.442 588.116 1095.674 588.116 C 1090.907 588.116 1087.036 584.246 1087.036 579.478 Z "
              fill="rgb(153,21,21)" mask="url(#_mask_Wpb1H5GmrmNUdQZZej94KIxtxqBfBSol)"
               stroke-width="12" stroke="rgb(255,255,255)" stroke-linejoin="miter"
              stroke-linecap="square" stroke-miterlimit="3"/>
        <path d=" M 1087.036 579.478 C 1087.036 574.71 1090.907 570.84 1095.674 570.84 C 1100.442 570.84 1104.313 574.71 1104.313 579.478 C 1104.313 584.246 1100.442 588.116 1095.674 588.116 C 1090.907 588.116 1087.036 584.246 1087.036 579.478 Z "
              fill="rgb(153,21,21)"/>
        <path d=" M 1376.538 481.843 L 1387.788 481.843 L 1387.788 589.843 L 1371.288 589.843 L 1336.188 498.643 L 1336.188 589.843 L 1324.638 589.843 L 1324.638 481.843 L 1341.588 481.843 L 1376.538 571.693 L 1376.538 481.843 Z "
              fill="rgb(153,21,21)"/>
        <path d=" M 1426.188 494.143 L 1412.388 494.143 L 1412.388 479.593 L 1426.188 479.593 L 1426.188 494.143 Z "
              fill="rgb(153,21,21)"/>
        <path d=" M 1425.288 589.843 L 1413.288 589.843 L 1413.288 508.843 L 1425.288 508.843 L 1425.288 589.843 Z "
              fill="rgb(153,21,21)"/>
        <mask id="_mask_HeJ3ac4VhGNi2Rh9nP5ICkj3gvIzFumW" x="-200%" y="-200%" width="400%" height="400%">
            <rect x="-200%" y="-200%" width="400%" height="400%" style="fill:white;"/>
            <path d=" M 1456.938 534.193 L 1456.938 534.193 L 1456.938 534.193 Q 1456.938 542.593 1461.738 547.543 L 1461.738 547.543 L 1461.738 547.543 Q 1466.538 552.493 1474.638 552.493 L 1474.638 552.493 L 1474.638 552.493 Q 1482.738 552.493 1487.313 547.543 L 1487.313 547.543 L 1487.313 547.543 Q 1491.888 542.593 1491.888 534.193 L 1491.888 534.193 L 1491.888 534.193 Q 1491.888 525.793 1487.613 520.543 L 1487.613 520.543 L 1487.613 520.543 Q 1483.338 515.293 1475.388 515.293 L 1475.388 515.293 L 1475.388 515.293 Q 1471.338 515.293 1467.963 516.643 L 1467.963 516.643 L 1467.963 516.643 Q 1464.588 517.993 1462.113 520.468 L 1462.113 520.468 L 1462.113 520.468 Q 1459.638 522.943 1458.288 526.468 L 1458.288 526.468 L 1458.288 526.468 Q 1456.938 529.993 1456.938 534.193 L 1456.938 534.193 Z  M 1505.988 501.043 L 1507.488 512.593 L 1489.788 512.593 L 1489.788 512.593 Q 1495.938 515.143 1499.913 520.393 L 1499.913 520.393 L 1499.913 520.393 Q 1503.888 525.643 1503.888 534.193 L 1503.888 534.193 L 1503.888 534.193 Q 1503.888 541.243 1501.263 546.343 L 1501.263 546.343 L 1501.263 546.343 Q 1498.638 551.443 1494.438 554.743 L 1494.438 554.743 L 1494.438 554.743 Q 1490.238 558.043 1484.988 559.618 L 1484.988 559.618 L 1484.988 559.618 Q 1479.738 561.193 1474.638 561.193 L 1474.638 561.193 L 1474.638 561.193 Q 1471.488 561.193 1468.188 560.593 L 1468.188 560.593 L 1468.188 560.593 Q 1464.888 559.993 1461.738 558.793 L 1461.738 558.793 L 1461.738 558.793 Q 1458.438 561.643 1458.438 564.343 L 1458.438 564.343 L 1458.438 564.343 Q 1458.438 565.693 1458.963 566.893 L 1458.963 566.893 L 1458.963 566.893 Q 1459.488 568.093 1461.138 568.993 L 1461.138 568.993 L 1461.138 568.993 Q 1462.788 569.893 1466.088 570.568 L 1466.088 570.568 L 1466.088 570.568 Q 1469.388 571.243 1475.088 571.543 L 1475.088 571.543 L 1475.088 571.543 Q 1482.738 571.993 1488.888 573.268 L 1488.888 573.268 L 1488.888 573.268 Q 1495.038 574.543 1499.388 577.243 L 1499.388 577.243 L 1499.388 577.243 Q 1503.738 579.943 1506.063 584.143 L 1506.063 584.143 L 1506.063 584.143 Q 1508.388 588.343 1508.388 594.643 L 1508.388 594.643 L 1508.388 594.643 Q 1508.388 599.293 1506.213 603.718 L 1506.213 603.718 L 1506.213 603.718 Q 1504.038 608.143 1499.763 611.668 L 1499.763 611.668 L 1499.763 611.668 Q 1495.488 615.193 1489.038 617.293 L 1489.038 617.293 L 1489.038 617.293 Q 1482.588 619.393 1474.038 619.393 L 1474.038 619.393 L 1474.038 619.393 Q 1458.738 619.393 1450.638 613.543 L 1450.638 613.543 L 1450.638 613.543 Q 1442.538 607.693 1442.538 598.093 L 1442.538 598.093 L 1442.538 598.093 Q 1442.538 591.343 1446.138 586.468 L 1446.138 586.468 L 1446.138 586.468 Q 1449.738 581.593 1455.438 578.593 L 1455.438 578.593 L 1455.438 578.593 Q 1451.538 576.643 1449.963 573.793 L 1449.963 573.793 L 1449.963 573.793 Q 1448.388 570.943 1448.388 567.493 L 1448.388 567.493 L 1448.388 567.493 Q 1448.388 563.143 1450.563 560.293 L 1450.563 560.293 L 1450.563 560.293 Q 1452.738 557.443 1456.188 555.793 L 1456.188 555.793 L 1456.188 555.793 Q 1451.388 552.493 1448.163 547.168 L 1448.163 547.168 L 1448.163 547.168 Q 1444.938 541.843 1444.938 534.193 L 1444.938 534.193 L 1444.938 534.193 Q 1444.938 527.293 1447.563 522.118 L 1447.563 522.118 L 1447.563 522.118 Q 1450.188 516.943 1454.538 513.493 L 1454.538 513.493 L 1454.538 513.493 Q 1458.888 510.043 1464.363 508.318 L 1464.363 508.318 L 1464.363 508.318 Q 1469.838 506.593 1475.538 506.593 L 1475.538 506.593 L 1505.988 501.043 L 1505.988 501.043 Z  M 1470.288 582.043 L 1470.288 582.043 L 1470.288 582.043 Q 1467.888 581.893 1465.938 581.593 L 1465.938 581.593 L 1465.938 581.593 Q 1463.988 581.293 1462.188 580.993 L 1462.188 580.993 L 1462.188 580.993 Q 1458.738 583.843 1456.638 587.368 L 1456.638 587.368 L 1456.638 587.368 Q 1454.538 590.893 1454.538 596.143 L 1454.538 596.143 L 1454.538 596.143 Q 1454.538 598.993 1455.513 601.693 L 1455.513 601.693 L 1455.513 601.693 Q 1456.488 604.393 1458.738 606.568 L 1458.738 606.568 L 1458.738 606.568 Q 1460.988 608.743 1464.663 610.018 L 1464.663 610.018 L 1464.663 610.018 Q 1468.338 611.293 1473.888 611.293 L 1473.888 611.293 L 1473.888 611.293 Q 1480.338 611.293 1484.538 609.643 L 1484.538 609.643 L 1484.538 609.643 Q 1488.738 607.993 1491.213 605.593 L 1491.213 605.593 L 1491.213 605.593 Q 1493.688 603.193 1494.663 600.418 L 1494.663 600.418 L 1494.663 600.418 Q 1495.638 597.643 1495.638 595.393 L 1495.638 595.393 L 1495.638 595.393 Q 1495.638 592.543 1494.663 590.293 L 1494.663 590.293 L 1494.663 590.293 Q 1493.688 588.043 1490.988 586.468 L 1490.988 586.468 L 1490.988 586.468 Q 1488.288 584.893 1483.338 583.768 L 1483.338 583.768 L 1483.338 583.768 Q 1478.388 582.643 1470.288 582.043 Z "
                  fill-rule="evenodd" fill="black" stroke="none"/>
        </mask>
        <path d=" M 1456.938 534.193 L 1456.938 534.193 L 1456.938 534.193 Q 1456.938 542.593 1461.738 547.543 L 1461.738 547.543 L 1461.738 547.543 Q 1466.538 552.493 1474.638 552.493 L 1474.638 552.493 L 1474.638 552.493 Q 1482.738 552.493 1487.313 547.543 L 1487.313 547.543 L 1487.313 547.543 Q 1491.888 542.593 1491.888 534.193 L 1491.888 534.193 L 1491.888 534.193 Q 1491.888 525.793 1487.613 520.543 L 1487.613 520.543 L 1487.613 520.543 Q 1483.338 515.293 1475.388 515.293 L 1475.388 515.293 L 1475.388 515.293 Q 1471.338 515.293 1467.963 516.643 L 1467.963 516.643 L 1467.963 516.643 Q 1464.588 517.993 1462.113 520.468 L 1462.113 520.468 L 1462.113 520.468 Q 1459.638 522.943 1458.288 526.468 L 1458.288 526.468 L 1458.288 526.468 Q 1456.938 529.993 1456.938 534.193 L 1456.938 534.193 Z  M 1505.988 501.043 L 1507.488 512.593 L 1489.788 512.593 L 1489.788 512.593 Q 1495.938 515.143 1499.913 520.393 L 1499.913 520.393 L 1499.913 520.393 Q 1503.888 525.643 1503.888 534.193 L 1503.888 534.193 L 1503.888 534.193 Q 1503.888 541.243 1501.263 546.343 L 1501.263 546.343 L 1501.263 546.343 Q 1498.638 551.443 1494.438 554.743 L 1494.438 554.743 L 1494.438 554.743 Q 1490.238 558.043 1484.988 559.618 L 1484.988 559.618 L 1484.988 559.618 Q 1479.738 561.193 1474.638 561.193 L 1474.638 561.193 L 1474.638 561.193 Q 1471.488 561.193 1468.188 560.593 L 1468.188 560.593 L 1468.188 560.593 Q 1464.888 559.993 1461.738 558.793 L 1461.738 558.793 L 1461.738 558.793 Q 1458.438 561.643 1458.438 564.343 L 1458.438 564.343 L 1458.438 564.343 Q 1458.438 565.693 1458.963 566.893 L 1458.963 566.893 L 1458.963 566.893 Q 1459.488 568.093 1461.138 568.993 L 1461.138 568.993 L 1461.138 568.993 Q 1462.788 569.893 1466.088 570.568 L 1466.088 570.568 L 1466.088 570.568 Q 1469.388 571.243 1475.088 571.543 L 1475.088 571.543 L 1475.088 571.543 Q 1482.738 571.993 1488.888 573.268 L 1488.888 573.268 L 1488.888 573.268 Q 1495.038 574.543 1499.388 577.243 L 1499.388 577.243 L 1499.388 577.243 Q 1503.738 579.943 1506.063 584.143 L 1506.063 584.143 L 1506.063 584.143 Q 1508.388 588.343 1508.388 594.643 L 1508.388 594.643 L 1508.388 594.643 Q 1508.388 599.293 1506.213 603.718 L 1506.213 603.718 L 1506.213 603.718 Q 1504.038 608.143 1499.763 611.668 L 1499.763 611.668 L 1499.763 611.668 Q 1495.488 615.193 1489.038 617.293 L 1489.038 617.293 L 1489.038 617.293 Q 1482.588 619.393 1474.038 619.393 L 1474.038 619.393 L 1474.038 619.393 Q 1458.738 619.393 1450.638 613.543 L 1450.638 613.543 L 1450.638 613.543 Q 1442.538 607.693 1442.538 598.093 L 1442.538 598.093 L 1442.538 598.093 Q 1442.538 591.343 1446.138 586.468 L 1446.138 586.468 L 1446.138 586.468 Q 1449.738 581.593 1455.438 578.593 L 1455.438 578.593 L 1455.438 578.593 Q 1451.538 576.643 1449.963 573.793 L 1449.963 573.793 L 1449.963 573.793 Q 1448.388 570.943 1448.388 567.493 L 1448.388 567.493 L 1448.388 567.493 Q 1448.388 563.143 1450.563 560.293 L 1450.563 560.293 L 1450.563 560.293 Q 1452.738 557.443 1456.188 555.793 L 1456.188 555.793 L 1456.188 555.793 Q 1451.388 552.493 1448.163 547.168 L 1448.163 547.168 L 1448.163 547.168 Q 1444.938 541.843 1444.938 534.193 L 1444.938 534.193 L 1444.938 534.193 Q 1444.938 527.293 1447.563 522.118 L 1447.563 522.118 L 1447.563 522.118 Q 1450.188 516.943 1454.538 513.493 L 1454.538 513.493 L 1454.538 513.493 Q 1458.888 510.043 1464.363 508.318 L 1464.363 508.318 L 1464.363 508.318 Q 1469.838 506.593 1475.538 506.593 L 1475.538 506.593 L 1505.988 501.043 L 1505.988 501.043 Z  M 1470.288 582.043 L 1470.288 582.043 L 1470.288 582.043 Q 1467.888 581.893 1465.938 581.593 L 1465.938 581.593 L 1465.938 581.593 Q 1463.988 581.293 1462.188 580.993 L 1462.188 580.993 L 1462.188 580.993 Q 1458.738 583.843 1456.638 587.368 L 1456.638 587.368 L 1456.638 587.368 Q 1454.538 590.893 1454.538 596.143 L 1454.538 596.143 L 1454.538 596.143 Q 1454.538 598.993 1455.513 601.693 L 1455.513 601.693 L 1455.513 601.693 Q 1456.488 604.393 1458.738 606.568 L 1458.738 606.568 L 1458.738 606.568 Q 1460.988 608.743 1464.663 610.018 L 1464.663 610.018 L 1464.663 610.018 Q 1468.338 611.293 1473.888 611.293 L 1473.888 611.293 L 1473.888 611.293 Q 1480.338 611.293 1484.538 609.643 L 1484.538 609.643 L 1484.538 609.643 Q 1488.738 607.993 1491.213 605.593 L 1491.213 605.593 L 1491.213 605.593 Q 1493.688 603.193 1494.663 600.418 L 1494.663 600.418 L 1494.663 600.418 Q 1495.638 597.643 1495.638 595.393 L 1495.638 595.393 L 1495.638 595.393 Q 1495.638 592.543 1494.663 590.293 L 1494.663 590.293 L 1494.663 590.293 Q 1493.688 588.043 1490.988 586.468 L 1490.988 586.468 L 1490.988 586.468 Q 1488.288 584.893 1483.338 583.768 L 1483.338 583.768 L 1483.338 583.768 Q 1478.388 582.643 1470.288 582.043 Z "
              fill-rule="evenodd" fill="rgb(153,21,21)" mask="url(#_mask_HeJ3ac4VhGNi2Rh9nP5ICkj3gvIzFumW)"
               stroke-width="6" stroke="rgb(255,255,255)" stroke-linejoin="miter"
              stroke-linecap="square" stroke-miterlimit="3"/>
        <path d=" M 1456.938 534.193 L 1456.938 534.193 L 1456.938 534.193 Q 1456.938 542.593 1461.738 547.543 L 1461.738 547.543 L 1461.738 547.543 Q 1466.538 552.493 1474.638 552.493 L 1474.638 552.493 L 1474.638 552.493 Q 1482.738 552.493 1487.313 547.543 L 1487.313 547.543 L 1487.313 547.543 Q 1491.888 542.593 1491.888 534.193 L 1491.888 534.193 L 1491.888 534.193 Q 1491.888 525.793 1487.613 520.543 L 1487.613 520.543 L 1487.613 520.543 Q 1483.338 515.293 1475.388 515.293 L 1475.388 515.293 L 1475.388 515.293 Q 1471.338 515.293 1467.963 516.643 L 1467.963 516.643 L 1467.963 516.643 Q 1464.588 517.993 1462.113 520.468 L 1462.113 520.468 L 1462.113 520.468 Q 1459.638 522.943 1458.288 526.468 L 1458.288 526.468 L 1458.288 526.468 Q 1456.938 529.993 1456.938 534.193 L 1456.938 534.193 Z  M 1505.988 501.043 L 1507.488 512.593 L 1489.788 512.593 L 1489.788 512.593 Q 1495.938 515.143 1499.913 520.393 L 1499.913 520.393 L 1499.913 520.393 Q 1503.888 525.643 1503.888 534.193 L 1503.888 534.193 L 1503.888 534.193 Q 1503.888 541.243 1501.263 546.343 L 1501.263 546.343 L 1501.263 546.343 Q 1498.638 551.443 1494.438 554.743 L 1494.438 554.743 L 1494.438 554.743 Q 1490.238 558.043 1484.988 559.618 L 1484.988 559.618 L 1484.988 559.618 Q 1479.738 561.193 1474.638 561.193 L 1474.638 561.193 L 1474.638 561.193 Q 1471.488 561.193 1468.188 560.593 L 1468.188 560.593 L 1468.188 560.593 Q 1464.888 559.993 1461.738 558.793 L 1461.738 558.793 L 1461.738 558.793 Q 1458.438 561.643 1458.438 564.343 L 1458.438 564.343 L 1458.438 564.343 Q 1458.438 565.693 1458.963 566.893 L 1458.963 566.893 L 1458.963 566.893 Q 1459.488 568.093 1461.138 568.993 L 1461.138 568.993 L 1461.138 568.993 Q 1462.788 569.893 1466.088 570.568 L 1466.088 570.568 L 1466.088 570.568 Q 1469.388 571.243 1475.088 571.543 L 1475.088 571.543 L 1475.088 571.543 Q 1482.738 571.993 1488.888 573.268 L 1488.888 573.268 L 1488.888 573.268 Q 1495.038 574.543 1499.388 577.243 L 1499.388 577.243 L 1499.388 577.243 Q 1503.738 579.943 1506.063 584.143 L 1506.063 584.143 L 1506.063 584.143 Q 1508.388 588.343 1508.388 594.643 L 1508.388 594.643 L 1508.388 594.643 Q 1508.388 599.293 1506.213 603.718 L 1506.213 603.718 L 1506.213 603.718 Q 1504.038 608.143 1499.763 611.668 L 1499.763 611.668 L 1499.763 611.668 Q 1495.488 615.193 1489.038 617.293 L 1489.038 617.293 L 1489.038 617.293 Q 1482.588 619.393 1474.038 619.393 L 1474.038 619.393 L 1474.038 619.393 Q 1458.738 619.393 1450.638 613.543 L 1450.638 613.543 L 1450.638 613.543 Q 1442.538 607.693 1442.538 598.093 L 1442.538 598.093 L 1442.538 598.093 Q 1442.538 591.343 1446.138 586.468 L 1446.138 586.468 L 1446.138 586.468 Q 1449.738 581.593 1455.438 578.593 L 1455.438 578.593 L 1455.438 578.593 Q 1451.538 576.643 1449.963 573.793 L 1449.963 573.793 L 1449.963 573.793 Q 1448.388 570.943 1448.388 567.493 L 1448.388 567.493 L 1448.388 567.493 Q 1448.388 563.143 1450.563 560.293 L 1450.563 560.293 L 1450.563 560.293 Q 1452.738 557.443 1456.188 555.793 L 1456.188 555.793 L 1456.188 555.793 Q 1451.388 552.493 1448.163 547.168 L 1448.163 547.168 L 1448.163 547.168 Q 1444.938 541.843 1444.938 534.193 L 1444.938 534.193 L 1444.938 534.193 Q 1444.938 527.293 1447.563 522.118 L 1447.563 522.118 L 1447.563 522.118 Q 1450.188 516.943 1454.538 513.493 L 1454.538 513.493 L 1454.538 513.493 Q 1458.888 510.043 1464.363 508.318 L 1464.363 508.318 L 1464.363 508.318 Q 1469.838 506.593 1475.538 506.593 L 1475.538 506.593 L 1505.988 501.043 L 1505.988 501.043 Z  M 1470.288 582.043 L 1470.288 582.043 L 1470.288 582.043 Q 1467.888 581.893 1465.938 581.593 L 1465.938 581.593 L 1465.938 581.593 Q 1463.988 581.293 1462.188 580.993 L 1462.188 580.993 L 1462.188 580.993 Q 1458.738 583.843 1456.638 587.368 L 1456.638 587.368 L 1456.638 587.368 Q 1454.538 590.893 1454.538 596.143 L 1454.538 596.143 L 1454.538 596.143 Q 1454.538 598.993 1455.513 601.693 L 1455.513 601.693 L 1455.513 601.693 Q 1456.488 604.393 1458.738 606.568 L 1458.738 606.568 L 1458.738 606.568 Q 1460.988 608.743 1464.663 610.018 L 1464.663 610.018 L 1464.663 610.018 Q 1468.338 611.293 1473.888 611.293 L 1473.888 611.293 L 1473.888 611.293 Q 1480.338 611.293 1484.538 609.643 L 1484.538 609.643 L 1484.538 609.643 Q 1488.738 607.993 1491.213 605.593 L 1491.213 605.593 L 1491.213 605.593 Q 1493.688 603.193 1494.663 600.418 L 1494.663 600.418 L 1494.663 600.418 Q 1495.638 597.643 1495.638 595.393 L 1495.638 595.393 L 1495.638 595.393 Q 1495.638 592.543 1494.663 590.293 L 1494.663 590.293 L 1494.663 590.293 Q 1493.688 588.043 1490.988 586.468 L 1490.988 586.468 L 1490.988 586.468 Q 1488.288 584.893 1483.338 583.768 L 1483.338 583.768 L 1483.338 583.768 Q 1478.388 582.643 1470.288 582.043 Z "
              fill-rule="evenodd" fill="rgb(153,21,21)"/>
        <path d=" M 1537.638 589.843 L 1525.638 589.843 L 1525.638 479.593 L 1537.638 479.593 L 1537.638 518.893 L 1537.638 518.893 Q 1542.438 512.293 1548.513 509.443 L 1548.513 509.443 L 1548.513 509.443 Q 1554.588 506.593 1560.288 506.593 L 1560.288 506.593 L 1560.288 506.593 Q 1565.538 506.593 1569.888 508.093 L 1569.888 508.093 L 1569.888 508.093 Q 1574.238 509.593 1577.313 512.893 L 1577.313 512.893 L 1577.313 512.893 Q 1580.388 516.193 1582.113 521.593 L 1582.113 521.593 L 1582.113 521.593 Q 1583.838 526.993 1583.838 534.793 L 1583.838 534.793 L 1583.838 589.843 L 1571.838 589.843 L 1571.838 536.743 L 1571.838 536.743 Q 1571.838 530.893 1570.938 526.918 L 1570.938 526.918 L 1570.938 526.918 Q 1570.038 522.943 1568.313 520.618 L 1568.313 520.618 L 1568.313 520.618 Q 1566.588 518.293 1563.888 517.318 L 1563.888 517.318 L 1563.888 517.318 Q 1561.188 516.343 1557.588 516.343 L 1557.588 516.343 L 1557.588 516.343 Q 1551.588 516.343 1546.638 519.943 L 1546.638 519.943 L 1546.638 519.943 Q 1541.688 523.543 1537.638 529.843 L 1537.638 529.843 L 1537.638 589.843 Z "
              fill="rgb(153,21,21)"/>
        <path d=" M 1640.688 579.193 L 1643.688 588.343 L 1643.688 588.343 Q 1637.988 590.743 1630.938 590.743 L 1630.938 590.743 L 1630.938 590.743 Q 1621.038 590.743 1615.938 585.343 L 1615.938 585.343 L 1615.938 585.343 Q 1610.838 579.943 1610.838 570.493 L 1610.838 570.493 L 1610.838 518.593 L 1598.088 518.593 L 1599.588 508.843 L 1610.988 508.843 L 1611.738 489.343 L 1622.838 489.343 L 1622.838 508.843 L 1640.238 508.843 L 1640.238 518.593 L 1622.838 518.593 L 1622.838 569.893 L 1622.838 569.893 Q 1622.838 575.893 1625.538 578.293 L 1625.538 578.293 L 1625.538 578.293 Q 1628.238 580.693 1632.888 580.693 L 1632.888 580.693 L 1632.888 580.693 Q 1635.138 580.693 1636.713 580.318 L 1636.713 580.318 L 1636.713 580.318 Q 1638.288 579.943 1640.688 579.193 L 1640.688 579.193 Z "
              fill="rgb(153,21,21)"/>
        <path d=" M 1670.838 494.143 L 1657.038 494.143 L 1657.038 479.593 L 1670.838 479.593 L 1670.838 494.143 Z "
              fill="rgb(153,21,21)"/>
        <path d=" M 1669.938 589.843 L 1657.938 589.843 L 1657.938 508.843 L 1669.938 508.843 L 1669.938 589.843 Z "
              fill="rgb(153,21,21)"/>
        <path d=" M 1705.938 589.843 L 1693.938 589.843 L 1693.938 508.843 L 1704.138 508.843 L 1705.038 519.493 L 1705.038 519.493 Q 1709.838 512.443 1716.213 509.518 L 1716.213 509.518 L 1716.213 509.518 Q 1722.588 506.593 1728.588 506.593 L 1728.588 506.593 L 1728.588 506.593 Q 1733.838 506.593 1738.188 508.018 L 1738.188 508.018 L 1738.188 508.018 Q 1742.538 509.443 1745.613 512.743 L 1745.613 512.743 L 1745.613 512.743 Q 1748.688 516.043 1750.413 521.368 L 1750.413 521.368 L 1750.413 521.368 Q 1752.138 526.693 1752.138 534.493 L 1752.138 534.493 L 1752.138 589.843 L 1740.138 589.843 L 1740.138 536.743 L 1740.138 536.743 Q 1740.138 530.893 1739.238 526.918 L 1739.238 526.918 L 1739.238 526.918 Q 1738.338 522.943 1736.613 520.618 L 1736.613 520.618 L 1736.613 520.618 Q 1734.888 518.293 1732.188 517.318 L 1732.188 517.318 L 1732.188 517.318 Q 1729.488 516.343 1725.888 516.343 L 1725.888 516.343 L 1725.888 516.343 Q 1719.888 516.343 1714.938 519.943 L 1714.938 519.943 L 1714.938 519.943 Q 1709.988 523.543 1705.938 529.843 L 1705.938 529.843 L 1705.938 589.843 Z "
              fill="rgb(153,21,21)"/>
        <mask id="_mask_lNkS1AG6BlvzDudV6UdCFdE1aNUqdmHs" x="-200%" y="-200%" width="400%" height="400%">
            <rect x="-200%" y="-200%" width="400%" height="400%" style="fill:white;"/>
            <path d=" M 1783.788 534.193 L 1783.788 534.193 L 1783.788 534.193 Q 1783.788 542.593 1788.588 547.543 L 1788.588 547.543 L 1788.588 547.543 Q 1793.388 552.493 1801.488 552.493 L 1801.488 552.493 L 1801.488 552.493 Q 1809.588 552.493 1814.163 547.543 L 1814.163 547.543 L 1814.163 547.543 Q 1818.738 542.593 1818.738 534.193 L 1818.738 534.193 L 1818.738 534.193 Q 1818.738 525.793 1814.463 520.543 L 1814.463 520.543 L 1814.463 520.543 Q 1810.188 515.293 1802.238 515.293 L 1802.238 515.293 L 1802.238 515.293 Q 1798.188 515.293 1794.813 516.643 L 1794.813 516.643 L 1794.813 516.643 Q 1791.438 517.993 1788.963 520.468 L 1788.963 520.468 L 1788.963 520.468 Q 1786.488 522.943 1785.138 526.468 L 1785.138 526.468 L 1785.138 526.468 Q 1783.788 529.993 1783.788 534.193 L 1783.788 534.193 Z  M 1832.838 501.043 L 1834.338 512.593 L 1816.638 512.593 L 1816.638 512.593 Q 1822.788 515.143 1826.763 520.393 L 1826.763 520.393 L 1826.763 520.393 Q 1830.738 525.643 1830.738 534.193 L 1830.738 534.193 L 1830.738 534.193 Q 1830.738 541.243 1828.113 546.343 L 1828.113 546.343 L 1828.113 546.343 Q 1825.488 551.443 1821.288 554.743 L 1821.288 554.743 L 1821.288 554.743 Q 1817.088 558.043 1811.838 559.618 L 1811.838 559.618 L 1811.838 559.618 Q 1806.588 561.193 1801.488 561.193 L 1801.488 561.193 L 1801.488 561.193 Q 1798.338 561.193 1795.038 560.593 L 1795.038 560.593 L 1795.038 560.593 Q 1791.738 559.993 1788.588 558.793 L 1788.588 558.793 L 1788.588 558.793 Q 1785.288 561.643 1785.288 564.343 L 1785.288 564.343 L 1785.288 564.343 Q 1785.288 565.693 1785.813 566.893 L 1785.813 566.893 L 1785.813 566.893 Q 1786.338 568.093 1787.988 568.993 L 1787.988 568.993 L 1787.988 568.993 Q 1789.638 569.893 1792.938 570.568 L 1792.938 570.568 L 1792.938 570.568 Q 1796.238 571.243 1801.938 571.543 L 1801.938 571.543 L 1801.938 571.543 Q 1809.588 571.993 1815.738 573.268 L 1815.738 573.268 L 1815.738 573.268 Q 1821.888 574.543 1826.238 577.243 L 1826.238 577.243 L 1826.238 577.243 Q 1830.588 579.943 1832.913 584.143 L 1832.913 584.143 L 1832.913 584.143 Q 1835.238 588.343 1835.238 594.643 L 1835.238 594.643 L 1835.238 594.643 Q 1835.238 599.293 1833.063 603.718 L 1833.063 603.718 L 1833.063 603.718 Q 1830.888 608.143 1826.613 611.668 L 1826.613 611.668 L 1826.613 611.668 Q 1822.338 615.193 1815.888 617.293 L 1815.888 617.293 L 1815.888 617.293 Q 1809.438 619.393 1800.888 619.393 L 1800.888 619.393 L 1800.888 619.393 Q 1785.588 619.393 1777.488 613.543 L 1777.488 613.543 L 1777.488 613.543 Q 1769.388 607.693 1769.388 598.093 L 1769.388 598.093 L 1769.388 598.093 Q 1769.388 591.343 1772.988 586.468 L 1772.988 586.468 L 1772.988 586.468 Q 1776.588 581.593 1782.288 578.593 L 1782.288 578.593 L 1782.288 578.593 Q 1778.388 576.643 1776.813 573.793 L 1776.813 573.793 L 1776.813 573.793 Q 1775.238 570.943 1775.238 567.493 L 1775.238 567.493 L 1775.238 567.493 Q 1775.238 563.143 1777.413 560.293 L 1777.413 560.293 L 1777.413 560.293 Q 1779.588 557.443 1783.038 555.793 L 1783.038 555.793 L 1783.038 555.793 Q 1778.238 552.493 1775.013 547.168 L 1775.013 547.168 L 1775.013 547.168 Q 1771.788 541.843 1771.788 534.193 L 1771.788 534.193 L 1771.788 534.193 Q 1771.788 527.293 1774.413 522.118 L 1774.413 522.118 L 1774.413 522.118 Q 1777.038 516.943 1781.388 513.493 L 1781.388 513.493 L 1781.388 513.493 Q 1785.738 510.043 1791.213 508.318 L 1791.213 508.318 L 1791.213 508.318 Q 1796.688 506.593 1802.388 506.593 L 1802.388 506.593 L 1832.838 501.043 L 1832.838 501.043 Z  M 1797.138 582.043 L 1797.138 582.043 L 1797.138 582.043 Q 1794.738 581.893 1792.788 581.593 L 1792.788 581.593 L 1792.788 581.593 Q 1790.838 581.293 1789.038 580.993 L 1789.038 580.993 L 1789.038 580.993 Q 1785.588 583.843 1783.488 587.368 L 1783.488 587.368 L 1783.488 587.368 Q 1781.388 590.893 1781.388 596.143 L 1781.388 596.143 L 1781.388 596.143 Q 1781.388 598.993 1782.363 601.693 L 1782.363 601.693 L 1782.363 601.693 Q 1783.338 604.393 1785.588 606.568 L 1785.588 606.568 L 1785.588 606.568 Q 1787.838 608.743 1791.513 610.018 L 1791.513 610.018 L 1791.513 610.018 Q 1795.188 611.293 1800.738 611.293 L 1800.738 611.293 L 1800.738 611.293 Q 1807.188 611.293 1811.388 609.643 L 1811.388 609.643 L 1811.388 609.643 Q 1815.588 607.993 1818.063 605.593 L 1818.063 605.593 L 1818.063 605.593 Q 1820.538 603.193 1821.513 600.418 L 1821.513 600.418 L 1821.513 600.418 Q 1822.488 597.643 1822.488 595.393 L 1822.488 595.393 L 1822.488 595.393 Q 1822.488 592.543 1821.513 590.293 L 1821.513 590.293 L 1821.513 590.293 Q 1820.538 588.043 1817.838 586.468 L 1817.838 586.468 L 1817.838 586.468 Q 1815.138 584.893 1810.188 583.768 L 1810.188 583.768 L 1810.188 583.768 Q 1805.238 582.643 1797.138 582.043 Z "
                  fill-rule="evenodd" fill="black" stroke="none"/>
        </mask>
        <path d=" M 1783.788 534.193 L 1783.788 534.193 L 1783.788 534.193 Q 1783.788 542.593 1788.588 547.543 L 1788.588 547.543 L 1788.588 547.543 Q 1793.388 552.493 1801.488 552.493 L 1801.488 552.493 L 1801.488 552.493 Q 1809.588 552.493 1814.163 547.543 L 1814.163 547.543 L 1814.163 547.543 Q 1818.738 542.593 1818.738 534.193 L 1818.738 534.193 L 1818.738 534.193 Q 1818.738 525.793 1814.463 520.543 L 1814.463 520.543 L 1814.463 520.543 Q 1810.188 515.293 1802.238 515.293 L 1802.238 515.293 L 1802.238 515.293 Q 1798.188 515.293 1794.813 516.643 L 1794.813 516.643 L 1794.813 516.643 Q 1791.438 517.993 1788.963 520.468 L 1788.963 520.468 L 1788.963 520.468 Q 1786.488 522.943 1785.138 526.468 L 1785.138 526.468 L 1785.138 526.468 Q 1783.788 529.993 1783.788 534.193 L 1783.788 534.193 Z  M 1832.838 501.043 L 1834.338 512.593 L 1816.638 512.593 L 1816.638 512.593 Q 1822.788 515.143 1826.763 520.393 L 1826.763 520.393 L 1826.763 520.393 Q 1830.738 525.643 1830.738 534.193 L 1830.738 534.193 L 1830.738 534.193 Q 1830.738 541.243 1828.113 546.343 L 1828.113 546.343 L 1828.113 546.343 Q 1825.488 551.443 1821.288 554.743 L 1821.288 554.743 L 1821.288 554.743 Q 1817.088 558.043 1811.838 559.618 L 1811.838 559.618 L 1811.838 559.618 Q 1806.588 561.193 1801.488 561.193 L 1801.488 561.193 L 1801.488 561.193 Q 1798.338 561.193 1795.038 560.593 L 1795.038 560.593 L 1795.038 560.593 Q 1791.738 559.993 1788.588 558.793 L 1788.588 558.793 L 1788.588 558.793 Q 1785.288 561.643 1785.288 564.343 L 1785.288 564.343 L 1785.288 564.343 Q 1785.288 565.693 1785.813 566.893 L 1785.813 566.893 L 1785.813 566.893 Q 1786.338 568.093 1787.988 568.993 L 1787.988 568.993 L 1787.988 568.993 Q 1789.638 569.893 1792.938 570.568 L 1792.938 570.568 L 1792.938 570.568 Q 1796.238 571.243 1801.938 571.543 L 1801.938 571.543 L 1801.938 571.543 Q 1809.588 571.993 1815.738 573.268 L 1815.738 573.268 L 1815.738 573.268 Q 1821.888 574.543 1826.238 577.243 L 1826.238 577.243 L 1826.238 577.243 Q 1830.588 579.943 1832.913 584.143 L 1832.913 584.143 L 1832.913 584.143 Q 1835.238 588.343 1835.238 594.643 L 1835.238 594.643 L 1835.238 594.643 Q 1835.238 599.293 1833.063 603.718 L 1833.063 603.718 L 1833.063 603.718 Q 1830.888 608.143 1826.613 611.668 L 1826.613 611.668 L 1826.613 611.668 Q 1822.338 615.193 1815.888 617.293 L 1815.888 617.293 L 1815.888 617.293 Q 1809.438 619.393 1800.888 619.393 L 1800.888 619.393 L 1800.888 619.393 Q 1785.588 619.393 1777.488 613.543 L 1777.488 613.543 L 1777.488 613.543 Q 1769.388 607.693 1769.388 598.093 L 1769.388 598.093 L 1769.388 598.093 Q 1769.388 591.343 1772.988 586.468 L 1772.988 586.468 L 1772.988 586.468 Q 1776.588 581.593 1782.288 578.593 L 1782.288 578.593 L 1782.288 578.593 Q 1778.388 576.643 1776.813 573.793 L 1776.813 573.793 L 1776.813 573.793 Q 1775.238 570.943 1775.238 567.493 L 1775.238 567.493 L 1775.238 567.493 Q 1775.238 563.143 1777.413 560.293 L 1777.413 560.293 L 1777.413 560.293 Q 1779.588 557.443 1783.038 555.793 L 1783.038 555.793 L 1783.038 555.793 Q 1778.238 552.493 1775.013 547.168 L 1775.013 547.168 L 1775.013 547.168 Q 1771.788 541.843 1771.788 534.193 L 1771.788 534.193 L 1771.788 534.193 Q 1771.788 527.293 1774.413 522.118 L 1774.413 522.118 L 1774.413 522.118 Q 1777.038 516.943 1781.388 513.493 L 1781.388 513.493 L 1781.388 513.493 Q 1785.738 510.043 1791.213 508.318 L 1791.213 508.318 L 1791.213 508.318 Q 1796.688 506.593 1802.388 506.593 L 1802.388 506.593 L 1832.838 501.043 L 1832.838 501.043 Z  M 1797.138 582.043 L 1797.138 582.043 L 1797.138 582.043 Q 1794.738 581.893 1792.788 581.593 L 1792.788 581.593 L 1792.788 581.593 Q 1790.838 581.293 1789.038 580.993 L 1789.038 580.993 L 1789.038 580.993 Q 1785.588 583.843 1783.488 587.368 L 1783.488 587.368 L 1783.488 587.368 Q 1781.388 590.893 1781.388 596.143 L 1781.388 596.143 L 1781.388 596.143 Q 1781.388 598.993 1782.363 601.693 L 1782.363 601.693 L 1782.363 601.693 Q 1783.338 604.393 1785.588 606.568 L 1785.588 606.568 L 1785.588 606.568 Q 1787.838 608.743 1791.513 610.018 L 1791.513 610.018 L 1791.513 610.018 Q 1795.188 611.293 1800.738 611.293 L 1800.738 611.293 L 1800.738 611.293 Q 1807.188 611.293 1811.388 609.643 L 1811.388 609.643 L 1811.388 609.643 Q 1815.588 607.993 1818.063 605.593 L 1818.063 605.593 L 1818.063 605.593 Q 1820.538 603.193 1821.513 600.418 L 1821.513 600.418 L 1821.513 600.418 Q 1822.488 597.643 1822.488 595.393 L 1822.488 595.393 L 1822.488 595.393 Q 1822.488 592.543 1821.513 590.293 L 1821.513 590.293 L 1821.513 590.293 Q 1820.538 588.043 1817.838 586.468 L 1817.838 586.468 L 1817.838 586.468 Q 1815.138 584.893 1810.188 583.768 L 1810.188 583.768 L 1810.188 583.768 Q 1805.238 582.643 1797.138 582.043 Z "
              fill-rule="evenodd" fill="rgb(153,21,21)" mask="url(#_mask_lNkS1AG6BlvzDudV6UdCFdE1aNUqdmHs)"
               stroke-width="6" stroke="rgb(255,255,255)" stroke-linejoin="miter"
              stroke-linecap="square" stroke-miterlimit="3"/>
        <path d=" M 1783.788 534.193 L 1783.788 534.193 L 1783.788 534.193 Q 1783.788 542.593 1788.588 547.543 L 1788.588 547.543 L 1788.588 547.543 Q 1793.388 552.493 1801.488 552.493 L 1801.488 552.493 L 1801.488 552.493 Q 1809.588 552.493 1814.163 547.543 L 1814.163 547.543 L 1814.163 547.543 Q 1818.738 542.593 1818.738 534.193 L 1818.738 534.193 L 1818.738 534.193 Q 1818.738 525.793 1814.463 520.543 L 1814.463 520.543 L 1814.463 520.543 Q 1810.188 515.293 1802.238 515.293 L 1802.238 515.293 L 1802.238 515.293 Q 1798.188 515.293 1794.813 516.643 L 1794.813 516.643 L 1794.813 516.643 Q 1791.438 517.993 1788.963 520.468 L 1788.963 520.468 L 1788.963 520.468 Q 1786.488 522.943 1785.138 526.468 L 1785.138 526.468 L 1785.138 526.468 Q 1783.788 529.993 1783.788 534.193 L 1783.788 534.193 Z  M 1832.838 501.043 L 1834.338 512.593 L 1816.638 512.593 L 1816.638 512.593 Q 1822.788 515.143 1826.763 520.393 L 1826.763 520.393 L 1826.763 520.393 Q 1830.738 525.643 1830.738 534.193 L 1830.738 534.193 L 1830.738 534.193 Q 1830.738 541.243 1828.113 546.343 L 1828.113 546.343 L 1828.113 546.343 Q 1825.488 551.443 1821.288 554.743 L 1821.288 554.743 L 1821.288 554.743 Q 1817.088 558.043 1811.838 559.618 L 1811.838 559.618 L 1811.838 559.618 Q 1806.588 561.193 1801.488 561.193 L 1801.488 561.193 L 1801.488 561.193 Q 1798.338 561.193 1795.038 560.593 L 1795.038 560.593 L 1795.038 560.593 Q 1791.738 559.993 1788.588 558.793 L 1788.588 558.793 L 1788.588 558.793 Q 1785.288 561.643 1785.288 564.343 L 1785.288 564.343 L 1785.288 564.343 Q 1785.288 565.693 1785.813 566.893 L 1785.813 566.893 L 1785.813 566.893 Q 1786.338 568.093 1787.988 568.993 L 1787.988 568.993 L 1787.988 568.993 Q 1789.638 569.893 1792.938 570.568 L 1792.938 570.568 L 1792.938 570.568 Q 1796.238 571.243 1801.938 571.543 L 1801.938 571.543 L 1801.938 571.543 Q 1809.588 571.993 1815.738 573.268 L 1815.738 573.268 L 1815.738 573.268 Q 1821.888 574.543 1826.238 577.243 L 1826.238 577.243 L 1826.238 577.243 Q 1830.588 579.943 1832.913 584.143 L 1832.913 584.143 L 1832.913 584.143 Q 1835.238 588.343 1835.238 594.643 L 1835.238 594.643 L 1835.238 594.643 Q 1835.238 599.293 1833.063 603.718 L 1833.063 603.718 L 1833.063 603.718 Q 1830.888 608.143 1826.613 611.668 L 1826.613 611.668 L 1826.613 611.668 Q 1822.338 615.193 1815.888 617.293 L 1815.888 617.293 L 1815.888 617.293 Q 1809.438 619.393 1800.888 619.393 L 1800.888 619.393 L 1800.888 619.393 Q 1785.588 619.393 1777.488 613.543 L 1777.488 613.543 L 1777.488 613.543 Q 1769.388 607.693 1769.388 598.093 L 1769.388 598.093 L 1769.388 598.093 Q 1769.388 591.343 1772.988 586.468 L 1772.988 586.468 L 1772.988 586.468 Q 1776.588 581.593 1782.288 578.593 L 1782.288 578.593 L 1782.288 578.593 Q 1778.388 576.643 1776.813 573.793 L 1776.813 573.793 L 1776.813 573.793 Q 1775.238 570.943 1775.238 567.493 L 1775.238 567.493 L 1775.238 567.493 Q 1775.238 563.143 1777.413 560.293 L 1777.413 560.293 L 1777.413 560.293 Q 1779.588 557.443 1783.038 555.793 L 1783.038 555.793 L 1783.038 555.793 Q 1778.238 552.493 1775.013 547.168 L 1775.013 547.168 L 1775.013 547.168 Q 1771.788 541.843 1771.788 534.193 L 1771.788 534.193 L 1771.788 534.193 Q 1771.788 527.293 1774.413 522.118 L 1774.413 522.118 L 1774.413 522.118 Q 1777.038 516.943 1781.388 513.493 L 1781.388 513.493 L 1781.388 513.493 Q 1785.738 510.043 1791.213 508.318 L 1791.213 508.318 L 1791.213 508.318 Q 1796.688 506.593 1802.388 506.593 L 1802.388 506.593 L 1832.838 501.043 L 1832.838 501.043 Z  M 1797.138 582.043 L 1797.138 582.043 L 1797.138 582.043 Q 1794.738 581.893 1792.788 581.593 L 1792.788 581.593 L 1792.788 581.593 Q 1790.838 581.293 1789.038 580.993 L 1789.038 580.993 L 1789.038 580.993 Q 1785.588 583.843 1783.488 587.368 L 1783.488 587.368 L 1783.488 587.368 Q 1781.388 590.893 1781.388 596.143 L 1781.388 596.143 L 1781.388 596.143 Q 1781.388 598.993 1782.363 601.693 L 1782.363 601.693 L 1782.363 601.693 Q 1783.338 604.393 1785.588 606.568 L 1785.588 606.568 L 1785.588 606.568 Q 1787.838 608.743 1791.513 610.018 L 1791.513 610.018 L 1791.513 610.018 Q 1795.188 611.293 1800.738 611.293 L 1800.738 611.293 L 1800.738 611.293 Q 1807.188 611.293 1811.388 609.643 L 1811.388 609.643 L 1811.388 609.643 Q 1815.588 607.993 1818.063 605.593 L 1818.063 605.593 L 1818.063 605.593 Q 1820.538 603.193 1821.513 600.418 L 1821.513 600.418 L 1821.513 600.418 Q 1822.488 597.643 1822.488 595.393 L 1822.488 595.393 L 1822.488 595.393 Q 1822.488 592.543 1821.513 590.293 L 1821.513 590.293 L 1821.513 590.293 Q 1820.538 588.043 1817.838 586.468 L 1817.838 586.468 L 1817.838 586.468 Q 1815.138 584.893 1810.188 583.768 L 1810.188 583.768 L 1810.188 583.768 Q 1805.238 582.643 1797.138 582.043 Z "
              fill-rule="evenodd" fill="rgb(153,21,21)"/>
        <path d=" M 1904.388 589.843 L 1894.038 589.843 L 1893.438 580.843 L 1893.438 580.843 Q 1890.138 585.343 1884.813 588.343 L 1884.813 588.343 L 1884.813 588.343 Q 1879.488 591.343 1871.238 591.343 L 1871.238 591.343 L 1871.238 591.343 Q 1866.888 591.343 1862.463 590.068 L 1862.463 590.068 L 1862.463 590.068 Q 1858.038 588.793 1854.513 586.018 L 1854.513 586.018 L 1854.513 586.018 Q 1850.988 583.243 1848.738 578.893 L 1848.738 578.893 L 1848.738 578.893 Q 1846.488 574.543 1846.488 568.243 L 1846.488 568.243 L 1846.488 568.243 Q 1846.488 555.043 1857.363 547.393 L 1857.363 547.393 L 1857.363 547.393 Q 1868.238 539.743 1892.388 539.293 L 1892.388 539.293 L 1892.388 532.543 L 1892.388 532.543 Q 1892.388 525.343 1888.863 520.618 L 1888.863 520.618 L 1888.863 520.618 Q 1885.338 515.893 1876.938 515.893 L 1876.938 515.893 L 1876.938 515.893 Q 1870.488 515.893 1866.213 519.118 L 1866.213 519.118 L 1866.213 519.118 Q 1861.938 522.343 1859.688 528.493 L 1859.688 528.493 L 1848.738 524.293 L 1848.738 524.293 Q 1852.338 516.193 1859.538 511.393 L 1859.538 511.393 L 1859.538 511.393 Q 1866.738 506.593 1877.238 506.593 L 1877.238 506.593 L 1877.238 506.593 Q 1884.138 506.593 1889.238 508.468 L 1889.238 508.468 L 1889.238 508.468 Q 1894.338 510.343 1897.713 513.568 L 1897.713 513.568 L 1897.713 513.568 Q 1901.088 516.793 1902.738 521.218 L 1902.738 521.218 L 1902.738 521.218 Q 1904.388 525.643 1904.388 530.743 L 1904.388 530.743 L 1904.388 589.843 Z  M 1874.538 581.743 L 1874.538 581.743 L 1874.538 581.743 Q 1880.238 581.743 1884.588 579.193 L 1884.588 579.193 L 1884.588 579.193 Q 1888.938 576.643 1892.388 572.743 L 1892.388 572.743 L 1892.388 548.743 L 1892.388 548.743 Q 1875.138 549.043 1867.038 553.618 L 1867.038 553.618 L 1867.038 553.618 Q 1858.938 558.193 1858.938 567.343 L 1858.938 567.343 L 1858.938 567.343 Q 1858.938 574.993 1863.513 578.368 L 1863.513 578.368 L 1863.513 578.368 Q 1868.088 581.743 1874.538 581.743 Z "
              fill-rule="evenodd" fill="rgb(153,21,21)"/>
        <path d=" M 1929.738 589.843 L 1929.738 489.343 L 1918.638 489.343 L 1920.138 479.593 L 1941.738 479.593 L 1941.738 589.843 L 1929.738 589.843 Z "
              fill="rgb(153,21,21)"/>
        <path d=" M 2015.088 570.343 L 2024.538 576.193 L 2024.538 576.193 Q 2020.638 582.343 2013.588 586.843 L 2013.588 586.843 L 2013.588 586.843 Q 2006.538 591.343 1996.038 591.343 L 1996.038 591.343 L 1996.038 591.343 Q 1988.688 591.343 1982.688 588.868 L 1982.688 588.868 L 1982.688 588.868 Q 1976.688 586.393 1972.338 581.293 L 1972.338 581.293 L 1972.338 581.293 Q 1967.988 576.193 1965.588 568.468 L 1965.588 568.468 L 1965.588 568.468 Q 1963.188 560.743 1963.188 550.093 L 1963.188 550.093 L 1963.188 550.093 Q 1963.188 538.693 1965.663 530.443 L 1965.663 530.443 L 1965.663 530.443 Q 1968.138 522.193 1972.563 516.868 L 1972.563 516.868 L 1972.563 516.868 Q 1976.988 511.543 1982.913 509.068 L 1982.913 509.068 L 1982.913 509.068 Q 1988.838 506.593 1995.588 506.593 L 1995.588 506.593 L 1995.588 506.593 Q 2003.088 506.593 2008.713 509.068 L 2008.713 509.068 L 2008.713 509.068 Q 2014.338 511.543 2018.088 517.018 L 2018.088 517.018 L 2018.088 517.018 Q 2021.838 522.493 2023.713 531.043 L 2023.713 531.043 L 2023.713 531.043 Q 2025.588 539.593 2025.588 551.743 L 2025.588 551.743 L 1975.488 551.743 L 1975.488 551.743 Q 1975.638 560.293 1977.363 566.068 L 1977.363 566.068 L 1977.363 566.068 Q 1979.088 571.843 1981.938 575.293 L 1981.938 575.293 L 1981.938 575.293 Q 1984.788 578.743 1988.613 580.243 L 1988.613 580.243 L 1988.613 580.243 Q 1992.438 581.743 1996.788 581.743 L 1996.788 581.743 L 1996.788 581.743 Q 2000.388 581.743 2003.313 580.618 L 2003.313 580.618 L 2003.313 580.618 Q 2006.238 579.493 2008.488 577.843 L 2008.488 577.843 L 2008.488 577.843 Q 2010.738 576.193 2012.388 574.168 L 2012.388 574.168 L 2012.388 574.168 Q 2014.038 572.143 2015.088 570.343 L 2015.088 570.343 Z  M 1995.588 515.893 L 1995.588 515.893 L 1995.588 515.893 Q 1987.188 515.893 1982.088 522.193 L 1982.088 522.193 L 1982.088 522.193 Q 1976.988 528.493 1975.788 542.143 L 1975.788 542.143 L 2013.138 542.143 L 2013.138 542.143 Q 2012.838 534.793 2011.563 529.768 L 2011.563 529.768 L 2011.563 529.768 Q 2010.288 524.743 2008.038 521.668 L 2008.038 521.668 L 2008.038 521.668 Q 2005.788 518.593 2002.713 517.243 L 2002.713 517.243 L 2002.713 517.243 Q 1999.638 515.893 1995.588 515.893 Z "
              fill-rule="evenodd" fill="rgb(153,21,21)"/>
        <rect x="1816.515" y="592.435" width="26.241" height="12.926" transform="matrix(1,0,0,1,0,0)" fill="transparent"
               stroke-width="3" stroke="rgb(255,255,255)" stroke-linejoin="miter"
              stroke-linecap="square" stroke-miterlimit="2"/>
        <rect x="1818.015" y="593.935" width="23.241" height="9.926" transform="matrix(1,0,0,1,0,0)" fill="rgb(0,0,0)"/>
        <rect x="1813.315" y="593.892" width="36.56" height="10.004" transform="matrix(1,0,0,1,0,0)" fill="rgb(0,0,0)"/>
        <rect x="1437.349" y="592.684" width="26.241" height="12.926" transform="matrix(1,0,0,1,0,0)" fill="transparent"
               stroke-width="3" stroke="rgb(255,255,255)" stroke-linejoin="miter"
              stroke-linecap="square" stroke-miterlimit="2"/>
        <rect x="1438.849" y="594.184" width="23.241" height="9.926" transform="matrix(1,0,0,1,0,0)" fill="rgb(0,0,0)"/>
        <rect x="1434.149" y="594.141" width="36.56" height="10.004" transform="matrix(1,0,0,1,0,0)" fill="rgb(0,0,0)"/>
        <path d=" M 1763.309 683.196 L 1763.309 683.196 Q 1756.167 683.196 1752.274 679.266 L 1752.274 679.266 L 1752.274 679.266 Q 1748.381 675.336 1748.381 667.896 L 1748.381 667.896 L 1748.381 667.896 Q 1748.381 660.456 1752.274 656.526 L 1752.274 656.526 L 1752.274 656.526 Q 1756.167 652.596 1763.309 652.596 L 1763.309 652.596 L 1763.309 652.596 Q 1769.409 652.596 1772.979 655.236 L 1772.979 655.236 L 1772.979 655.236 Q 1776.55 657.876 1777.096 662.916 L 1777.096 662.916 L 1771.64 662.916 L 1771.64 662.916 Q 1771.144 659.436 1769.136 657.576 L 1769.136 657.576 L 1769.136 657.576 Q 1767.127 655.716 1764.003 655.716 L 1764.003 655.716 L 1764.003 655.716 Q 1759.936 655.716 1757.828 658.836 L 1757.828 658.836 L 1757.828 658.836 Q 1755.721 661.956 1755.721 667.896 L 1755.721 667.896 L 1755.721 667.896 Q 1755.721 673.836 1757.828 676.956 L 1757.828 676.956 L 1757.828 676.956 Q 1759.936 680.076 1764.003 680.076 L 1764.003 680.076 L 1764.003 680.076 Q 1767.028 680.076 1769.086 678.186 L 1769.086 678.186 L 1769.086 678.186 Q 1771.144 676.296 1771.64 672.876 L 1771.64 672.876 L 1777.096 672.876 L 1777.096 672.876 Q 1776.55 677.916 1772.955 680.556 L 1772.955 680.556 L 1772.955 680.556 Q 1769.359 683.196 1763.309 683.196 L 1763.309 683.196 Z  M 1782.898 682.596 L 1782.898 641.616 L 1790.238 641.616 L 1790.238 658.056 L 1790.238 658.056 Q 1791.379 655.536 1793.735 654.066 L 1793.735 654.066 L 1793.735 654.066 Q 1796.09 652.596 1799.017 652.596 L 1799.017 652.596 L 1799.017 652.596 Q 1803.877 652.596 1806.679 655.596 L 1806.679 655.596 L 1806.679 655.596 Q 1809.481 658.596 1809.481 663.876 L 1809.481 663.876 L 1809.481 682.596 L 1802.141 682.596 L 1802.141 663.336 L 1802.141 663.336 Q 1802.141 655.716 1796.884 655.716 L 1796.884 655.716 L 1796.884 655.716 Q 1793.809 655.716 1792.024 658.476 L 1792.024 658.476 L 1792.024 658.476 Q 1790.238 661.236 1790.238 665.916 L 1790.238 665.916 L 1790.238 682.596 L 1782.898 682.596 Z  M 1830.063 680.076 L 1830.063 680.076 Q 1833.435 680.076 1835.245 678.276 L 1835.245 678.276 L 1835.245 678.276 Q 1837.056 676.476 1837.601 672.876 L 1837.601 672.876 L 1843.056 672.876 L 1843.056 672.876 Q 1842.213 677.856 1838.519 680.526 L 1838.519 680.526 L 1838.519 680.526 Q 1834.824 683.196 1829.22 683.196 L 1829.22 683.196 L 1829.22 683.196 Q 1824.756 683.196 1821.483 681.366 L 1821.483 681.366 L 1821.483 681.366 Q 1818.21 679.536 1816.449 676.116 L 1816.449 676.116 L 1816.449 676.116 Q 1814.688 672.696 1814.688 668.016 L 1814.688 668.016 L 1814.688 668.016 Q 1814.688 663.276 1816.449 659.796 L 1816.449 659.796 L 1816.449 659.796 Q 1818.21 656.316 1821.483 654.456 L 1821.483 654.456 L 1821.483 654.456 Q 1824.756 652.596 1829.22 652.596 L 1829.22 652.596 L 1829.22 652.596 Q 1836.113 652.596 1839.734 656.556 L 1839.734 656.556 L 1839.734 656.556 Q 1843.354 660.516 1843.354 668.076 L 1843.354 668.076 L 1822.028 668.076 L 1822.028 668.436 L 1822.028 668.436 Q 1822.028 680.076 1830.063 680.076 L 1830.063 680.076 Z  M 1829.468 655.716 L 1829.468 655.716 Q 1826.393 655.716 1824.558 658.116 L 1824.558 658.116 L 1824.558 658.116 Q 1822.723 660.516 1822.227 664.956 L 1822.227 664.956 L 1836.262 664.956 L 1836.262 664.956 Q 1835.865 660.396 1834.129 658.056 L 1834.129 658.056 L 1834.129 658.056 Q 1832.394 655.716 1829.468 655.716 L 1829.468 655.716 Z  M 1862.944 683.196 L 1862.944 683.196 Q 1855.802 683.196 1851.909 679.266 L 1851.909 679.266 L 1851.909 679.266 Q 1848.016 675.336 1848.016 667.896 L 1848.016 667.896 L 1848.016 667.896 Q 1848.016 660.456 1851.909 656.526 L 1851.909 656.526 L 1851.909 656.526 Q 1855.802 652.596 1862.944 652.596 L 1862.944 652.596 L 1862.944 652.596 Q 1869.044 652.596 1872.615 655.236 L 1872.615 655.236 L 1872.615 655.236 Q 1876.186 657.876 1876.731 662.916 L 1876.731 662.916 L 1871.276 662.916 L 1871.276 662.916 Q 1870.78 659.436 1868.771 657.576 L 1868.771 657.576 L 1868.771 657.576 Q 1866.763 655.716 1863.638 655.716 L 1863.638 655.716 L 1863.638 655.716 Q 1859.571 655.716 1857.464 658.836 L 1857.464 658.836 L 1857.464 658.836 Q 1855.356 661.956 1855.356 667.896 L 1855.356 667.896 L 1855.356 667.896 Q 1855.356 673.836 1857.464 676.956 L 1857.464 676.956 L 1857.464 676.956 Q 1859.571 680.076 1863.638 680.076 L 1863.638 680.076 L 1863.638 680.076 Q 1866.663 680.076 1868.722 678.186 L 1868.722 678.186 L 1868.722 678.186 Q 1870.78 676.296 1871.276 672.876 L 1871.276 672.876 L 1876.731 672.876 L 1876.731 672.876 Q 1876.186 677.916 1872.59 680.556 L 1872.59 680.556 L 1872.59 680.556 Q 1868.994 683.196 1862.944 683.196 L 1862.944 683.196 Z  M 1909.513 682.596 L 1902.123 682.596 L 1892.601 668.196 L 1889.874 671.016 L 1889.874 682.596 L 1882.534 682.596 L 1882.534 641.616 L 1889.874 641.616 L 1889.874 664.596 L 1901.181 653.196 L 1907.033 653.196 L 1897.015 663.576 L 1909.513 682.596 Z  M 1925.879 680.076 L 1925.879 680.076 Q 1929.252 680.076 1931.062 678.276 L 1931.062 678.276 L 1931.062 678.276 Q 1932.872 676.476 1933.418 672.876 L 1933.418 672.876 L 1938.873 672.876 L 1938.873 672.876 Q 1938.03 677.856 1934.335 680.526 L 1934.335 680.526 L 1934.335 680.526 Q 1930.64 683.196 1925.036 683.196 L 1925.036 683.196 L 1925.036 683.196 Q 1920.573 683.196 1917.299 681.366 L 1917.299 681.366 L 1917.299 681.366 Q 1914.026 679.536 1912.266 676.116 L 1912.266 676.116 L 1912.266 676.116 Q 1910.505 672.696 1910.505 668.016 L 1910.505 668.016 L 1910.505 668.016 Q 1910.505 663.276 1912.266 659.796 L 1912.266 659.796 L 1912.266 659.796 Q 1914.026 656.316 1917.299 654.456 L 1917.299 654.456 L 1917.299 654.456 Q 1920.573 652.596 1925.036 652.596 L 1925.036 652.596 L 1925.036 652.596 Q 1931.93 652.596 1935.55 656.556 L 1935.55 656.556 L 1935.55 656.556 Q 1939.171 660.516 1939.171 668.076 L 1939.171 668.076 L 1917.845 668.076 L 1917.845 668.436 L 1917.845 668.436 Q 1917.845 680.076 1925.879 680.076 L 1925.879 680.076 Z  M 1925.284 655.716 L 1925.284 655.716 Q 1922.209 655.716 1920.374 658.116 L 1920.374 658.116 L 1920.374 658.116 Q 1918.539 660.516 1918.043 664.956 L 1918.043 664.956 L 1932.079 664.956 L 1932.079 664.956 Q 1931.682 660.396 1929.946 658.056 L 1929.946 658.056 L 1929.946 658.056 Q 1928.21 655.716 1925.284 655.716 L 1925.284 655.716 Z  M 1944.576 682.596 L 1944.576 653.196 L 1951.916 653.196 L 1951.916 659.256 L 1951.916 659.256 Q 1952.859 656.076 1954.867 654.336 L 1954.867 654.336 L 1954.867 654.336 Q 1956.876 652.596 1959.901 652.596 L 1959.901 652.596 L 1959.901 652.596 Q 1960.893 652.596 1961.587 652.836 L 1961.587 652.836 L 1961.141 658.056 L 1961.141 658.056 Q 1960.347 657.576 1959.058 657.576 L 1959.058 657.576 L 1959.058 657.576 Q 1955.388 657.576 1953.652 661.176 L 1953.652 661.176 L 1953.652 661.176 Q 1951.916 664.776 1951.916 669.636 L 1951.916 669.636 L 1951.916 682.596 L 1944.576 682.596 Z  M 1567.559 682.596 L 1567.559 641.616 L 1574.899 641.616 L 1574.899 658.056 L 1574.899 658.056 Q 1576.04 655.536 1578.395 654.066 L 1578.395 654.066 L 1578.395 654.066 Q 1580.751 652.596 1583.677 652.596 L 1583.677 652.596 L 1583.677 652.596 Q 1588.538 652.596 1591.34 655.596 L 1591.34 655.596 L 1591.34 655.596 Q 1594.142 658.596 1594.142 663.876 L 1594.142 663.876 L 1594.142 682.596 L 1586.802 682.596 L 1586.802 663.336 L 1586.802 663.336 Q 1586.802 655.716 1581.545 655.716 L 1581.545 655.716 L 1581.545 655.716 Q 1578.47 655.716 1576.684 658.476 L 1576.684 658.476 L 1576.684 658.476 Q 1574.899 661.236 1574.899 665.916 L 1574.899 665.916 L 1574.899 682.596 L 1567.559 682.596 Z  M 1614.723 680.076 L 1614.723 680.076 Q 1618.096 680.076 1619.906 678.276 L 1619.906 678.276 L 1619.906 678.276 Q 1621.716 676.476 1622.262 672.876 L 1622.262 672.876 L 1627.717 672.876 L 1627.717 672.876 Q 1626.874 677.856 1623.179 680.526 L 1623.179 680.526 L 1623.179 680.526 Q 1619.484 683.196 1613.88 683.196 L 1613.88 683.196 L 1613.88 683.196 Q 1609.417 683.196 1606.144 681.366 L 1606.144 681.366 L 1606.144 681.366 Q 1602.87 679.536 1601.11 676.116 L 1601.11 676.116 L 1601.11 676.116 Q 1599.349 672.696 1599.349 668.016 L 1599.349 668.016 L 1599.349 668.016 Q 1599.349 663.276 1601.11 659.796 L 1601.11 659.796 L 1601.11 659.796 Q 1602.87 656.316 1606.144 654.456 L 1606.144 654.456 L 1606.144 654.456 Q 1609.417 652.596 1613.88 652.596 L 1613.88 652.596 L 1613.88 652.596 Q 1620.774 652.596 1624.394 656.556 L 1624.394 656.556 L 1624.394 656.556 Q 1628.015 660.516 1628.015 668.076 L 1628.015 668.076 L 1606.689 668.076 L 1606.689 668.436 L 1606.689 668.436 Q 1606.689 680.076 1614.723 680.076 L 1614.723 680.076 Z  M 1614.128 655.716 L 1614.128 655.716 Q 1611.053 655.716 1609.218 658.116 L 1609.218 658.116 L 1609.218 658.116 Q 1607.383 660.516 1606.887 664.956 L 1606.887 664.956 L 1620.923 664.956 L 1620.923 664.956 Q 1620.526 660.396 1618.79 658.056 L 1618.79 658.056 L 1618.79 658.056 Q 1617.054 655.716 1614.128 655.716 L 1614.128 655.716 Z  M 1643.637 683.196 L 1643.637 683.196 Q 1638.33 683.196 1635.677 680.826 L 1635.677 680.826 L 1635.677 680.826 Q 1633.024 678.456 1633.024 674.136 L 1633.024 674.136 L 1633.024 674.136 Q 1633.024 669.576 1636.148 667.116 L 1636.148 667.116 L 1636.148 667.116 Q 1639.273 664.656 1645.174 664.656 L 1645.174 664.656 L 1651.671 664.656 L 1651.671 662.676 L 1651.671 662.676 Q 1651.671 659.316 1650.134 657.516 L 1650.134 657.516 L 1650.134 657.516 Q 1648.596 655.716 1645.72 655.716 L 1645.72 655.716 L 1645.72 655.716 Q 1642.893 655.716 1641.232 657.456 L 1641.232 657.456 L 1641.232 657.456 Q 1639.57 659.196 1639.174 662.556 L 1639.174 662.556 L 1633.718 662.556 L 1633.718 662.556 Q 1634.264 657.696 1637.537 655.146 L 1637.537 655.146 L 1637.537 655.146 Q 1640.81 652.596 1646.414 652.596 L 1646.414 652.596 L 1646.414 652.596 Q 1652.564 652.596 1655.788 655.356 L 1655.788 655.356 L 1655.788 655.356 Q 1659.011 658.116 1659.011 663.336 L 1659.011 663.336 L 1659.011 672.816 L 1659.011 672.816 Q 1659.011 678.276 1659.755 682.596 L 1659.755 682.596 L 1652.911 682.596 L 1652.911 682.596 Q 1652.415 680.316 1652.217 678.576 L 1652.217 678.576 L 1652.217 678.576 Q 1650.779 681.036 1648.522 682.116 L 1648.522 682.116 L 1648.522 682.116 Q 1646.266 683.196 1643.637 683.196 L 1643.637 683.196 Z  M 1645.174 680.196 L 1645.174 680.196 Q 1648.249 680.196 1649.96 678.186 L 1649.96 678.186 L 1649.96 678.186 Q 1651.671 676.176 1651.671 672.816 L 1651.671 672.816 L 1651.671 667.776 L 1647.257 667.776 L 1647.257 667.776 Q 1643.935 667.776 1642.149 669.426 L 1642.149 669.426 L 1642.149 669.426 Q 1640.364 671.076 1640.364 674.076 L 1640.364 674.076 L 1640.364 674.076 Q 1640.364 677.136 1641.579 678.666 L 1641.579 678.666 L 1641.579 678.666 Q 1642.794 680.196 1645.174 680.196 L 1645.174 680.196 Z  M 1667.194 682.596 L 1667.194 641.616 L 1674.534 641.616 L 1674.534 682.596 L 1667.194 682.596 Z  M 1691.347 683.196 L 1691.347 683.196 Q 1687.627 683.196 1685.668 680.946 L 1685.668 680.946 L 1685.668 680.946 Q 1683.709 678.696 1683.709 674.376 L 1683.709 674.376 L 1683.709 656.316 L 1679.395 656.316 L 1680.287 653.196 L 1683.858 653.196 L 1685.594 644.916 L 1691.049 644.916 L 1691.049 653.196 L 1697.745 653.196 L 1696.951 656.316 L 1691.049 656.316 L 1691.049 674.976 L 1691.049 674.976 Q 1691.049 677.436 1691.892 678.696 L 1691.892 678.696 L 1691.892 678.696 Q 1692.736 679.956 1694.323 679.956 L 1694.323 679.956 L 1694.323 679.956 Q 1696.108 679.956 1697.893 678.816 L 1697.893 678.816 L 1697.893 681.996 L 1697.893 681.996 Q 1695.612 683.196 1691.347 683.196 L 1691.347 683.196 Z  M 1702.208 682.596 L 1702.208 641.616 L 1709.548 641.616 L 1709.548 658.056 L 1709.548 658.056 Q 1710.689 655.536 1713.045 654.066 L 1713.045 654.066 L 1713.045 654.066 Q 1715.4 652.596 1718.326 652.596 L 1718.326 652.596 L 1718.326 652.596 Q 1723.187 652.596 1725.989 655.596 L 1725.989 655.596 L 1725.989 655.596 Q 1728.791 658.596 1728.791 663.876 L 1728.791 663.876 L 1728.791 682.596 L 1721.451 682.596 L 1721.451 663.336 L 1721.451 663.336 Q 1721.451 655.716 1716.194 655.716 L 1716.194 655.716 L 1716.194 655.716 Q 1713.119 655.716 1711.333 658.476 L 1711.333 658.476 L 1711.333 658.476 Q 1709.548 661.236 1709.548 665.916 L 1709.548 665.916 L 1709.548 682.596 L 1702.208 682.596 Z  M 1432.265 655.416 L 1432.265 655.416 Q 1431.224 654.756 1429.81 654.396 L 1429.81 654.396 L 1429.81 654.396 Q 1428.397 654.036 1427.157 654.036 L 1427.157 654.036 L 1427.157 654.036 Q 1425.52 654.036 1424.677 654.156 L 1424.677 654.156 L 1424.677 654.156 Q 1427.207 655.356 1428.595 657.576 L 1428.595 657.576 L 1428.595 657.576 Q 1429.984 659.796 1429.984 662.676 L 1429.984 662.676 L 1429.984 662.676 Q 1429.984 665.676 1428.471 668.046 L 1428.471 668.046 L 1428.471 668.046 Q 1426.959 670.416 1424.132 671.796 L 1424.132 671.796 L 1424.132 671.796 Q 1421.305 673.176 1417.437 673.176 L 1417.437 673.176 L 1417.437 673.176 Q 1413.866 673.176 1413.866 675.336 L 1413.866 675.336 L 1413.866 675.336 Q 1413.866 675.876 1414.486 676.236 L 1414.486 676.236 L 1414.486 676.236 Q 1415.106 676.596 1416.097 676.596 L 1416.097 676.596 L 1418.18 676.596 L 1418.18 676.596 Q 1424.479 676.596 1428.075 678.726 L 1428.075 678.726 L 1428.075 678.726 Q 1431.67 680.856 1431.67 684.696 L 1431.67 684.696 L 1431.67 684.696 Q 1431.67 689.136 1427.579 691.686 L 1427.579 691.686 L 1427.579 691.686 Q 1423.487 694.236 1416.544 694.236 L 1416.544 694.236 L 1416.544 694.236 Q 1412.18 694.236 1409.005 693.276 L 1409.005 693.276 L 1409.005 693.276 Q 1405.831 692.316 1404.145 690.636 L 1404.145 690.636 L 1404.145 690.636 Q 1402.459 688.956 1402.459 686.736 L 1402.459 686.736 L 1402.459 686.736 Q 1402.459 684.216 1404.443 682.506 L 1404.443 682.506 L 1404.443 682.506 Q 1406.427 680.796 1410.295 680.016 L 1410.295 680.016 L 1410.295 680.016 Q 1405.98 679.176 1405.98 676.296 L 1405.98 676.296 L 1405.98 676.296 Q 1405.98 674.916 1407.592 673.776 L 1407.592 673.776 L 1407.592 673.776 Q 1409.204 672.636 1411.733 672.276 L 1411.733 672.276 L 1411.733 672.276 Q 1407.666 671.016 1406.03 668.646 L 1406.03 668.646 L 1406.03 668.646 Q 1404.393 666.276 1404.393 662.616 L 1404.393 662.616 L 1404.393 662.616 Q 1404.393 659.616 1406.03 657.336 L 1406.03 657.336 L 1406.03 657.336 Q 1407.666 655.056 1410.568 653.826 L 1410.568 653.826 L 1410.568 653.826 Q 1413.469 652.596 1417.189 652.596 L 1417.189 652.596 L 1417.189 652.596 Q 1418.924 652.596 1420.263 652.836 L 1420.263 652.836 L 1420.263 652.836 Q 1421.602 651.516 1423.462 650.736 L 1423.462 650.736 L 1423.462 650.736 Q 1425.322 649.956 1427.405 649.956 L 1427.405 649.956 L 1427.405 649.956 Q 1428.546 649.956 1429.934 650.136 L 1429.934 650.136 L 1429.934 650.136 Q 1431.323 650.316 1432.265 650.796 L 1432.265 650.796 L 1432.265 655.416 Z  M 1417.189 669.996 L 1417.189 669.996 Q 1419.817 669.996 1421.231 668.166 L 1421.231 668.166 L 1421.231 668.166 Q 1422.644 666.336 1422.644 662.856 L 1422.644 662.856 L 1422.644 662.856 Q 1422.644 659.376 1421.231 657.546 L 1421.231 657.546 L 1421.231 657.546 Q 1419.817 655.716 1417.189 655.716 L 1417.189 655.716 L 1417.189 655.716 Q 1414.56 655.716 1413.171 657.546 L 1413.171 657.546 L 1413.171 657.546 Q 1411.783 659.376 1411.783 662.856 L 1411.783 662.856 L 1411.783 662.856 Q 1411.783 666.336 1413.171 668.166 L 1413.171 668.166 L 1413.171 668.166 Q 1414.56 669.996 1417.189 669.996 L 1417.189 669.996 Z  M 1418.131 680.076 L 1418.131 680.076 Q 1413.568 680.076 1410.94 681.666 L 1410.94 681.666 L 1410.94 681.666 Q 1408.311 683.256 1408.311 685.956 L 1408.311 685.956 L 1408.311 685.956 Q 1408.311 688.476 1410.568 689.916 L 1410.568 689.916 L 1410.568 689.916 Q 1412.824 691.356 1416.742 691.356 L 1416.742 691.356 L 1416.742 691.356 Q 1420.66 691.356 1422.892 689.706 L 1422.892 689.706 L 1422.892 689.706 Q 1425.124 688.056 1425.124 685.116 L 1425.124 685.116 L 1425.124 685.116 Q 1425.124 682.836 1423.239 681.456 L 1423.239 681.456 L 1423.239 681.456 Q 1421.355 680.076 1418.131 680.076 L 1418.131 680.076 Z  M 1467.378 673.296 L 1467.378 673.296 Q 1468.767 677.376 1469.684 679.596 L 1469.684 679.596 L 1469.684 679.596 Q 1470.602 681.816 1471.395 681.756 L 1471.395 681.756 L 1471.395 682.596 L 1463.163 682.596 L 1463.163 682.596 Q 1462.22 681.396 1461.452 679.536 L 1461.452 679.536 L 1461.452 679.536 Q 1460.683 677.676 1459.84 674.856 L 1459.84 674.856 L 1459.84 674.856 Q 1458.6 670.896 1457.509 668.676 L 1457.509 668.676 L 1457.509 668.676 Q 1456.418 666.456 1454.682 665.616 L 1454.682 665.616 L 1453.938 665.616 L 1446.598 665.616 L 1446.598 682.596 L 1438.217 682.596 L 1438.217 640.596 L 1453.938 640.596 L 1453.938 640.596 Q 1461.724 640.596 1465.965 643.416 L 1465.965 643.416 L 1465.965 643.416 Q 1470.205 646.236 1470.205 653.016 L 1470.205 653.016 L 1470.205 653.016 Q 1470.205 662.196 1462.022 664.596 L 1462.022 664.596 L 1462.022 664.596 Q 1463.708 665.856 1464.973 667.926 L 1464.973 667.926 L 1464.973 667.926 Q 1466.238 669.996 1467.378 673.296 L 1467.378 673.296 Z  M 1446.598 644.316 L 1446.598 661.896 L 1453.988 661.896 L 1453.988 661.896 Q 1457.757 661.896 1459.815 660.036 L 1459.815 660.036 L 1459.815 660.036 Q 1461.873 658.176 1461.873 653.016 L 1461.873 653.016 L 1461.873 653.016 Q 1461.873 647.976 1459.815 646.146 L 1459.815 646.146 L 1459.815 646.146 Q 1457.757 644.316 1453.988 644.316 L 1453.988 644.316 L 1446.598 644.316 Z  M 1475.413 682.596 L 1475.413 640.596 L 1489.993 640.596 L 1489.993 640.596 Q 1497.829 640.596 1502.07 643.566 L 1502.07 643.566 L 1502.07 643.566 Q 1506.31 646.536 1506.31 653.616 L 1506.31 653.616 L 1506.31 653.616 Q 1506.31 660.576 1502.119 663.606 L 1502.119 663.606 L 1502.119 663.606 Q 1497.928 666.636 1489.993 666.636 L 1489.993 666.636 L 1483.844 666.636 L 1483.844 682.596 L 1475.413 682.596 Z  M 1483.844 662.856 L 1490.043 662.856 L 1490.043 662.856 Q 1494.01 662.856 1495.969 660.876 L 1495.969 660.876 L 1495.969 660.876 Q 1497.928 658.896 1497.928 653.616 L 1497.928 653.616 L 1497.928 653.616 Q 1497.928 648.396 1495.994 646.356 L 1495.994 646.356 L 1495.994 646.356 Q 1494.06 644.316 1490.043 644.316 L 1490.043 644.316 L 1483.844 644.316 L 1483.844 662.856 Z  M 1529.718 683.196 L 1529.718 683.196 Q 1520.097 683.196 1515.038 677.616 L 1515.038 677.616 L 1515.038 677.616 Q 1509.98 672.036 1509.98 661.416 L 1509.98 661.416 L 1509.98 661.416 Q 1509.98 650.976 1515.014 645.486 L 1515.014 645.486 L 1515.014 645.486 Q 1520.048 639.996 1529.619 639.996 L 1529.619 639.996 L 1529.619 639.996 Q 1537.902 639.996 1542.588 643.686 L 1542.588 643.686 L 1542.588 643.686 Q 1547.275 647.376 1548.019 654.396 L 1548.019 654.396 L 1541.423 654.396 L 1541.423 654.396 Q 1540.629 649.176 1537.654 646.446 L 1537.654 646.446 L 1537.654 646.446 Q 1534.678 643.716 1529.867 643.716 L 1529.867 643.716 L 1529.867 643.716 Q 1524.313 643.716 1521.411 648.246 L 1521.411 648.246 L 1521.411 648.246 Q 1518.51 652.776 1518.51 661.416 L 1518.51 661.416 L 1518.51 661.416 Q 1518.51 670.236 1521.436 674.856 L 1521.436 674.856 L 1521.436 674.856 Q 1524.362 679.476 1529.917 679.476 L 1529.917 679.476 L 1529.917 679.476 Q 1534.728 679.476 1537.678 676.746 L 1537.678 676.746 L 1537.678 676.746 Q 1540.629 674.016 1541.423 668.796 L 1541.423 668.796 L 1548.019 668.796 L 1548.019 668.796 Q 1547.275 675.816 1542.588 679.506 L 1542.588 679.506 L 1542.588 679.506 Q 1537.902 683.196 1529.718 683.196 L 1529.718 683.196 Z "
              fill="rgb(0,0,0)"/>
    </g>
</svg>
