<?xml version="1.0" encoding="UTF-8" standalone="no"?><!-- Generator: Gravit.io --><svg xmlns="http://www.w3.org/2000/svg" xmlns:xlink="http://www.w3.org/1999/xlink" style="isolation:isolate" viewBox="791.517 478.497 42.497 36.076" width="42.497pt" height="36.076pt"><defs><clipPath id="_clipPath_SbwINqIUnx5kUgUKQR8IV0AMX4VfZxTb"><rect x="791.517" y="478.497" width="42.497" height="36.076"/></clipPath></defs><g clip-path="url(#_clipPath_SbwINqIUnx5kUgUKQR8IV0AMX4VfZxTb)"><path d=" M 792.117 498.703 L 797.133 498.703 L 799.477 496.359 L 801.389 507.938 L 804.398 488.531 L 807.531 500.25 L 808.795 498.516 L 815.538 498.563 L 816.923 496.734 L 818.32 507.469 L 823.805 487.969 L 827.742 501.422 L 829.102 498.516 L 833.414 498.469" fill="none" vector-effect="non-scaling-stroke" stroke-width="1.2" stroke="rgb(0,0,0)" stroke-linejoin="round" stroke-linecap="square" stroke-miterlimit="3"/><mask id="_mask_FImtPSIfOOhSy21YPGrWofVr5I7iTAA2" x="-200%" y="-200%" width="400%" height="400%"><rect x="-200%" y="-200%" width="400%" height="400%" style="fill:white;"/><path d=" M 821 502 L 822.744 502 L 822.744 506.338 L 822.744 506.338 Q 822.744 508.779 821.27 510.176 L 821.27 510.176 L 821.27 510.176 Q 819.795 511.572 817.217 511.572 L 817.217 511.572 L 817.217 511.572 Q 814.639 511.572 813.228 510.166 L 813.228 510.166 L 813.228 510.166 Q 811.816 508.76 811.816 506.299 L 811.816 506.299 L 811.816 497.1 L 813.477 497.1 L 813.477 506.416 L 813.477 506.416 Q 813.477 508.203 814.453 509.16 L 814.453 509.16 L 814.453 509.16 Q 815.43 510.117 817.324 510.117 L 817.324 510.117 L 817.324 510.117 Q 819.131 510.117 820.107 509.155 L 820.107 509.155 L 820.107 509.155 Q 821.084 508.193 821.084 506.396 L 821.084 506.396 L 821 502 Z " fill="black" stroke="none"/></mask><path d=" M 821 502 L 822.744 502 L 822.744 506.338 L 822.744 506.338 Q 822.744 508.779 821.27 510.176 L 821.27 510.176 L 821.27 510.176 Q 819.795 511.572 817.217 511.572 L 817.217 511.572 L 817.217 511.572 Q 814.639 511.572 813.228 510.166 L 813.228 510.166 L 813.228 510.166 Q 811.816 508.76 811.816 506.299 L 811.816 506.299 L 811.816 497.1 L 813.477 497.1 L 813.477 506.416 L 813.477 506.416 Q 813.477 508.203 814.453 509.16 L 814.453 509.16 L 814.453 509.16 Q 815.43 510.117 817.324 510.117 L 817.324 510.117 L 817.324 510.117 Q 819.131 510.117 820.107 509.155 L 820.107 509.155 L 820.107 509.155 Q 821.084 508.193 821.084 506.396 L 821.084 506.396 L 821 502 Z " fill="rgb(157,10,10)" mask="url(#_mask_FImtPSIfOOhSy21YPGrWofVr5I7iTAA2)" vector-effect="non-scaling-stroke" stroke-width="2" stroke="rgb(255,255,255)" stroke-linejoin="miter" stroke-linecap="square" stroke-miterlimit="3"/><path d=" M 821 502 L 822.744 502 L 822.744 506.338 L 822.744 506.338 Q 822.744 508.779 821.27 510.176 L 821.27 510.176 L 821.27 510.176 Q 819.795 511.572 817.217 511.572 L 817.217 511.572 L 817.217 511.572 Q 814.639 511.572 813.228 510.166 L 813.228 510.166 L 813.228 510.166 Q 811.816 508.76 811.816 506.299 L 811.816 506.299 L 811.816 497.1 L 813.477 497.1 L 813.477 506.416 L 813.477 506.416 Q 813.477 508.203 814.453 509.16 L 814.453 509.16 L 814.453 509.16 Q 815.43 510.117 817.324 510.117 L 817.324 510.117 L 817.324 510.117 Q 819.131 510.117 820.107 509.155 L 820.107 509.155 L 820.107 509.155 Q 821.084 508.193 821.084 506.396 L 821.084 506.396 L 821 502 Z " fill="rgb(157,10,10)"/><mask id="_mask_PNHIzATaIcUdUg2c73t9eY0rFQzeaCZY" x="-200%" y="-200%" width="400%" height="400%"><rect x="-200%" y="-200%" width="400%" height="400%" style="fill:white;"/><path d=" M 818.885 497.941 L 818.885 497.941 L 818.885 497.941 Q 818.885 496.672 819.768 495.783 L 819.768 495.783 L 819.768 495.783 Q 820.652 494.895 821.922 494.895 L 821.922 494.895 L 821.922 494.895 Q 823.191 494.895 824.08 495.778 L 824.08 495.778 L 824.08 495.778 Q 824.968 496.662 824.968 497.941 L 824.968 497.941 L 824.968 497.941 Q 824.968 498.762 824.568 499.46 L 824.568 499.46 L 824.568 499.46 Q 824.168 500.158 823.455 500.568 L 823.455 500.568 L 823.455 500.568 Q 822.742 500.979 821.922 500.979 L 821.922 500.979 L 821.922 500.979 Q 820.652 500.979 819.768 500.1 L 819.768 500.1 L 819.768 500.1 Q 818.885 499.221 818.885 497.941 Z  M 820.008 497.941 L 820.008 497.941 L 820.008 497.941 Q 820.008 498.742 820.579 499.299 L 820.579 499.299 L 820.579 499.299 Q 821.15 499.855 821.941 499.855 L 821.941 499.855 L 821.941 499.855 Q 822.722 499.855 823.284 499.304 L 823.284 499.304 L 823.284 499.304 Q 823.845 498.752 823.845 497.941 L 823.845 497.941 L 823.845 497.941 Q 823.845 497.121 823.294 496.569 L 823.294 496.569 L 823.294 496.569 Q 822.742 496.018 821.941 496.018 L 821.941 496.018 L 821.941 496.018 Q 821.131 496.018 820.569 496.574 L 820.569 496.574 L 820.569 496.574 Q 820.008 497.131 820.008 497.941 Z " fill="black" stroke="none"/></mask><path d=" M 818.885 497.941 L 818.885 497.941 L 818.885 497.941 Q 818.885 496.672 819.768 495.783 L 819.768 495.783 L 819.768 495.783 Q 820.652 494.895 821.922 494.895 L 821.922 494.895 L 821.922 494.895 Q 823.191 494.895 824.08 495.778 L 824.08 495.778 L 824.08 495.778 Q 824.968 496.662 824.968 497.941 L 824.968 497.941 L 824.968 497.941 Q 824.968 498.762 824.568 499.46 L 824.568 499.46 L 824.568 499.46 Q 824.168 500.158 823.455 500.568 L 823.455 500.568 L 823.455 500.568 Q 822.742 500.979 821.922 500.979 L 821.922 500.979 L 821.922 500.979 Q 820.652 500.979 819.768 500.1 L 819.768 500.1 L 819.768 500.1 Q 818.885 499.221 818.885 497.941 Z  M 820.008 497.941 L 820.008 497.941 L 820.008 497.941 Q 820.008 498.742 820.579 499.299 L 820.579 499.299 L 820.579 499.299 Q 821.15 499.855 821.941 499.855 L 821.941 499.855 L 821.941 499.855 Q 822.722 499.855 823.284 499.304 L 823.284 499.304 L 823.284 499.304 Q 823.845 498.752 823.845 497.941 L 823.845 497.941 L 823.845 497.941 Q 823.845 497.121 823.294 496.569 L 823.294 496.569 L 823.294 496.569 Q 822.742 496.018 821.941 496.018 L 821.941 496.018 L 821.941 496.018 Q 821.131 496.018 820.569 496.574 L 820.569 496.574 L 820.569 496.574 Q 820.008 497.131 820.008 497.941 Z " fill="rgb(157,10,10)" mask="url(#_mask_PNHIzATaIcUdUg2c73t9eY0rFQzeaCZY)" vector-effect="non-scaling-stroke" stroke-width="2" stroke="rgb(255,255,255)" stroke-linejoin="miter" stroke-linecap="square" stroke-miterlimit="3"/><path d=" M 818.885 497.941 L 818.885 497.941 L 818.885 497.941 Q 818.885 496.672 819.768 495.783 L 819.768 495.783 L 819.768 495.783 Q 820.652 494.895 821.922 494.895 L 821.922 494.895 L 821.922 494.895 Q 823.191 494.895 824.08 495.778 L 824.08 495.778 L 824.08 495.778 Q 824.968 496.662 824.968 497.941 L 824.968 497.941 L 824.968 497.941 Q 824.968 498.762 824.568 499.46 L 824.568 499.46 L 824.568 499.46 Q 824.168 500.158 823.455 500.568 L 823.455 500.568 L 823.455 500.568 Q 822.742 500.979 821.922 500.979 L 821.922 500.979 L 821.922 500.979 Q 820.652 500.979 819.768 500.1 L 819.768 500.1 L 819.768 500.1 Q 818.885 499.221 818.885 497.941 Z  M 820.008 497.941 L 820.008 497.941 L 820.008 497.941 Q 820.008 498.742 820.579 499.299 L 820.579 499.299 L 820.579 499.299 Q 821.15 499.855 821.941 499.855 L 821.941 499.855 L 821.941 499.855 Q 822.722 499.855 823.284 499.304 L 823.284 499.304 L 823.284 499.304 Q 823.845 498.752 823.845 497.941 L 823.845 497.941 L 823.845 497.941 Q 823.845 497.121 823.294 496.569 L 823.294 496.569 L 823.294 496.569 Q 822.742 496.018 821.941 496.018 L 821.941 496.018 L 821.941 496.018 Q 821.131 496.018 820.569 496.574 L 820.569 496.574 L 820.569 496.574 Q 820.008 497.131 820.008 497.941 Z " fill="rgb(157,10,10)"/><mask id="_mask_99tATmx1kqft3KxutVdeV6ZIX6u1vb8x" x="-200%" y="-200%" width="400%" height="400%"><rect x="-200%" y="-200%" width="400%" height="400%" style="fill:white;"/><path d=" M 816.275 481.497 L 817.899 481.497 L 817.899 490.735 L 817.899 490.735 Q 817.899 493.177 816.424 494.573 L 816.424 494.573 L 816.424 494.573 Q 814.949 495.97 812.371 495.97 L 812.371 495.97 L 812.371 495.97 Q 809.793 495.97 808.382 494.563 L 808.382 494.563 L 808.382 494.563 Q 806.971 493.157 806.971 490.696 L 806.971 490.696 L 806.971 481.497 L 808.607 481.497 L 808.607 481.497 L 810.288 481.497 L 810.288 483.12 L 808.631 483.12 L 808.631 490.813 L 808.631 490.813 Q 808.631 492.601 809.608 493.558 L 809.608 493.558 L 809.608 493.558 Q 810.584 494.515 812.479 494.515 L 812.479 494.515 L 812.479 494.515 Q 814.285 494.515 815.262 493.553 L 815.262 493.553 L 815.262 493.553 Q 816.238 492.591 816.238 490.794 L 816.238 490.794 L 816.238 483.12 L 814.594 483.12 L 814.594 481.497 L 816.275 481.497 L 816.275 481.497 Z " fill-rule="evenodd" fill="black" stroke="none"/></mask><path d=" M 816.275 481.497 L 817.899 481.497 L 817.899 490.735 L 817.899 490.735 Q 817.899 493.177 816.424 494.573 L 816.424 494.573 L 816.424 494.573 Q 814.949 495.97 812.371 495.97 L 812.371 495.97 L 812.371 495.97 Q 809.793 495.97 808.382 494.563 L 808.382 494.563 L 808.382 494.563 Q 806.971 493.157 806.971 490.696 L 806.971 490.696 L 806.971 481.497 L 808.607 481.497 L 808.607 481.497 L 810.288 481.497 L 810.288 483.12 L 808.631 483.12 L 808.631 490.813 L 808.631 490.813 Q 808.631 492.601 809.608 493.558 L 809.608 493.558 L 809.608 493.558 Q 810.584 494.515 812.479 494.515 L 812.479 494.515 L 812.479 494.515 Q 814.285 494.515 815.262 493.553 L 815.262 493.553 L 815.262 493.553 Q 816.238 492.591 816.238 490.794 L 816.238 490.794 L 816.238 483.12 L 814.594 483.12 L 814.594 481.497 L 816.275 481.497 L 816.275 481.497 Z " fill-rule="evenodd" fill="rgb(157,10,10)" mask="url(#_mask_99tATmx1kqft3KxutVdeV6ZIX6u1vb8x)" vector-effect="non-scaling-stroke" stroke-width="2" stroke="rgb(255,255,255)" stroke-linejoin="miter" stroke-linecap="square" stroke-miterlimit="3"/><path d=" M 816.275 481.497 L 817.899 481.497 L 817.899 490.735 L 817.899 490.735 Q 817.899 493.177 816.424 494.573 L 816.424 494.573 L 816.424 494.573 Q 814.949 495.97 812.371 495.97 L 812.371 495.97 L 812.371 495.97 Q 809.793 495.97 808.382 494.563 L 808.382 494.563 L 808.382 494.563 Q 806.971 493.157 806.971 490.696 L 806.971 490.696 L 806.971 481.497 L 808.607 481.497 L 808.607 481.497 L 810.288 481.497 L 810.288 483.12 L 808.631 483.12 L 808.631 490.813 L 808.631 490.813 Q 808.631 492.601 809.608 493.558 L 809.608 493.558 L 809.608 493.558 Q 810.584 494.515 812.479 494.515 L 812.479 494.515 L 812.479 494.515 Q 814.285 494.515 815.262 493.553 L 815.262 493.553 L 815.262 493.553 Q 816.238 492.591 816.238 490.794 L 816.238 490.794 L 816.238 483.12 L 814.594 483.12 L 814.594 481.497 L 816.275 481.497 L 816.275 481.497 Z " fill-rule="evenodd" fill="rgb(157,10,10)"/><circle vector-effect="non-scaling-stroke" cx="821.915526632287" cy="497.9744147073897" r="0.9452036129443968" fill="rgb(157,10,10)"/></g></svg>